<?xml version="1.0" encoding="utf-8"?>
<!-- Generator: Adobe Illustrator 22.0.0, SVG Export Plug-In . SVG Version: 6.00 Build 0)  -->
<svg version="1.1" id="Layer_1" xmlns="http://www.w3.org/2000/svg" xmlns:xlink="http://www.w3.org/1999/xlink" x="0px" y="0px"
	 viewBox="0 0 113.5 163.8" style="enable-background:new 0 0 113.5 163.8;" xml:space="preserve">
<style type="text/css">
	.st0{display:none;}
	.st1{display:inline;fill:#1F1F1F;}
	.st2{fill:#1F1F1F;}
</style>
<g class="st0">
	<path class="st1" d="M107.2,42.9c-1,0.4-2.2,1-3.5,1.6c-1.3,0.6-2.7,1.4-4,2.2c-1,0.6-1.8,1.3-2.5,2c-0.7,0.7-1.3,1.4-1.8,2.2
		c0.1-0.3,0.1-0.7,0.2-1c0.7-0.8,1.4-1.6,2.1-2.3c1.2-1.2,2.5-2.4,3.7-3.6c1.2-1.2,2.4-2.4,3.5-3.7c1.1-1.3,2-2.7,2.7-4.2
		c0.4-0.8,0.7-2.1,1-3.6c0.1-0.7,0.2-1.5,0.3-2.3c0.1-0.8,0.1-1.6,0.2-2.4c0.1-1.6,0.1-3,0.1-4.1c-0.1-1.1-0.1-1.8-0.1-1.8
		s-0.2,0.1-0.6,0.4c-0.4,0.3-1,0.7-1.6,1.2c-1.4,1.1-3.3,2.6-5.2,4.6c-0.3,0.3-0.5,0.6-0.8,0.9c0.4-1.1,0.7-2.2,1-3.4
		c0.4-1.8,0.6-3.7,0.5-5.5c0-1.9-0.4-3.8-0.7-5.7c-0.4-1.9-0.8-3.6-1.2-5.2C99.5,6.5,99,4.3,99,4.3s-0.5,2.1-1.4,5.1
		c-0.5,1.5-1,3.2-1.5,5c-0.5,1.8-1,3.6-1.3,5.4c-0.5,2.9-0.4,5.9-0.1,8.7c-0.2-0.3-0.4-0.7-0.6-1c-1.5-2.3-3.1-4-4.3-5.2
		c-0.6-0.6-1.1-1-1.5-1.4c-0.4-0.3-0.6-0.5-0.6-0.5s-0.1,0.6-0.3,1.6c-0.2,1-0.4,2.3-0.7,3.7c-0.2,1.4-0.4,2.9-0.5,4.2
		c-0.1,1.3-0.1,2.5,0.1,3.3c0.3,1.5,0.8,2.9,1.4,4.4c0.6,1.4,1.3,2.8,2.1,4.3c0.7,1.5,1.5,2.9,2.1,4.5c0.4,0.9,0.7,1.9,1,2.9
		c-0.1,0.3-0.2,0.6-0.2,0.9c-0.3-1.8-1-3.7-2.2-5.4c-0.9-1.3-1.9-2.4-2.9-3.4c-1-1-1.9-1.8-2.8-2.5c-1.7-1.4-2.8-2.1-2.8-2.1
		s-0.1,0.6-0.3,1.5c-0.2,0.9-0.4,2.2-0.6,3.5c-0.2,1.4-0.3,2.8-0.4,4.1c-0.1,1.3,0,2.5,0.2,3.3c0.3,1.5,0.9,3,1.6,4.6
		c0.7,1.5,1.5,3.1,2.3,4.6c1.2,2.4,2.4,4.9,3,7.6c-0.1,0.3-0.2,0.6-0.3,0.9c-0.1-0.8-0.3-1.6-0.5-2.4c-0.4-1-0.9-2-1.6-3
		c-1.9-2.8-4.4-5.1-6.3-6.8c-1-0.8-1.8-1.4-2.4-1.9c-0.6-0.4-0.9-0.7-0.9-0.7s-0.1,0.6-0.3,1.4c-0.1,0.4-0.2,1-0.3,1.6
		c0,0.3-0.1,0.6-0.2,0.9c-0.1,0.3-0.1,0.6-0.2,1c-0.4,2.7-0.8,5.7-0.4,7.4c0.3,1.6,0.9,3.2,1.6,4.8c0.7,1.6,1.4,3.3,2.1,5
		c0.4,0.9,0.7,1.7,1,2.6c0.3,0.9,0.6,1.7,0.8,2.6c0.2,0.9,0.4,1.7,0.5,2.6c-0.1,0.3-0.3,0.5-0.4,0.8c0-0.7-0.1-1.4-0.3-2.2
		c-0.3-1.1-0.7-2.2-1.4-3.3c-1.8-3.1-4.3-5.9-6.2-7.8c-1-1-1.8-1.7-2.5-2.3c-0.6-0.5-1-0.8-1-0.8s-0.1,0.5-0.4,1.4
		c-0.2,0.8-0.5,2-0.8,3.3c-0.1,0.6-0.3,1.3-0.4,2c-0.1,0.7-0.2,1.4-0.3,2c-0.2,1.3-0.3,2.5-0.1,3.4c0.2,1.6,0.7,3.3,1.2,5.1
		c0.6,1.8,1.1,3.6,1.7,5.4c0.8,2.6,1.4,5.3,1.5,7.9c-0.2,0.2-0.3,0.4-0.5,0.7c0-0.6,0-1.2,0-1.9c-0.1-1.1-0.4-2.3-1-3.5
		c-1.4-3.4-3.7-6.6-5.5-8.9c-0.9-1.1-1.7-2.1-2.3-2.7c-0.6-0.6-0.9-1-0.9-1s-0.2,0.5-0.5,1.3c-0.1,0.4-0.3,0.9-0.5,1.4
		c-0.2,0.5-0.3,1.1-0.6,1.7c-0.4,1.2-0.7,2.6-1,3.9c-0.3,1.3-0.5,2.5-0.4,3.4c0.1,1.7,0.3,3.5,0.7,5.4c0.3,1.8,0.7,3.7,0.9,5.7
		c0.4,2.6,0.5,5.3,0.2,7.8c-0.2,0.2-0.4,0.4-0.6,0.6c0.1-0.5,0.2-1,0.2-1.5c0.1-1.1,0-2.3-0.3-3.6c-0.2-0.9-0.5-1.8-0.8-2.7
		c-0.2-0.4-0.3-0.9-0.5-1.3c-0.2-0.4-0.4-0.9-0.5-1.3c-0.7-1.7-1.5-3.2-2.3-4.5c-1.5-2.6-2.7-4.2-2.7-4.2s-0.2,0.5-0.6,1.3
		c-0.3,0.8-0.7,2-1.2,3.2c-0.2,0.6-0.5,1.3-0.7,1.9c-0.1,0.3-0.2,0.7-0.3,1c-0.1,0.3-0.2,0.6-0.3,1c-0.4,1.3-0.7,2.5-0.8,3.5
		c-0.2,1.7-0.2,3.6-0.2,5.5c-0.1,1.8-0.1,3.7-0.2,5.6c-0.2,2.4-0.6,4.8-1.4,7c-0.2,0.1-0.4,0.3-0.6,0.4c0.2-0.4,0.3-0.7,0.4-1.1
		c0.3-1,0.5-2.2,0.5-3.4c0-3.4-0.9-7-1.8-9.7c-0.9-2.7-1.8-4.4-1.8-4.4s-0.3,0.5-0.7,1.3c-0.2,0.4-0.5,0.9-0.7,1.4
		c-0.3,0.5-0.6,1.2-0.9,1.7c-0.7,1.2-1.3,2.6-2,3.8c-0.7,1.2-1.2,2.4-1.5,3.3c-0.1,0.4-0.3,0.8-0.4,1.2c-0.1,0.4-0.2,0.8-0.3,1.2
		c-0.2,0.8-0.4,1.7-0.7,2.5c-0.1,0.4-0.2,0.8-0.3,1.3c-0.2,0.4-0.3,0.8-0.5,1.3c-0.3,0.8-0.6,1.7-0.9,2.5c-0.7,2.1-1.6,4-2.8,5.7
		c-0.1,0.1-0.3,0.1-0.4,0.2c-0.1,0-0.2,0.1-0.3,0.1c0.8-1,1.4-2.1,1.8-3.5c0.1-0.4,0.2-0.7,0.3-1.1l0.1-0.3l0-0.1l0,0l0,0l0,0
		c0,0,0.1-0.1-0.1,0.1l0,0l0-0.1c0-0.2,0.1-0.4,0.1-0.6c0.1-0.8,0.2-1.5,0.3-2.3c0.1-1.5,0.2-2.9,0.1-4.1c0-1.2-0.1-2.3-0.2-3
		c-0.1-0.7-0.2-1.1-0.2-1.1s-0.1,0.1-0.2,0.3c-0.1,0.2-0.4,0.5-0.8,0.9c-0.7,0.8-1.7,1.9-2.8,3.1l0,0.1l0,0
		c-0.2,0.1,0.3-0.2,0.3-0.1l0,0l0,0l0,0l-0.1,0.1l-0.2,0.2l-0.3,0.4l-0.7,0.8c-0.4,0.5-0.9,1-1.3,1.5c-0.9,1-1.7,1.9-2.2,2.6
		c-1.8,2.5-3.5,5.2-5.5,7.6c-1.2,1.5-2.6,2.9-4.1,4.1c0,0-0.1,0-0.1,0c0.4-0.3,0.7-0.7,1-1.1c1.1-1.6,1.9-3.2,2.3-4.6
		c0.4-1.3,0.5-2.2,0.5-2.2s-0.4,0.2-1,0.5c-0.3,0.2-0.6,0.3-1,0.5c-0.4,0.2-0.8,0.4-1.3,0.6c-0.9,0.4-1.9,0.9-2.7,1.3
		c-0.9,0.4-1.7,0.8-2.1,1.2c-2.6,1.8-4.8,4.1-7.3,5.9c-0.1,0-0.2,0-0.3,0.1c0,0,0,0.1,0.1,0.1c0.1,0.3,0.3,0.7,0.4,1.1
		c0.1,0.2,0.1,0.5,0.1,0.7c0,0.3,0.1,0.6,0.1,1c0,0.1,0,0.1,0,0.2c0,1.1-0.3,2.2-0.7,3.1c0.7,0.2,1.4,0.5,2.1,0.7
		c0.5,0.2,1,0.4,1.5,0.6c0.2,0.1,0.5,0.2,0.7,0.3c0.2,0.1,0.5,0.2,0.7,0.3c0.4,0.2,0.9,0.4,1.3,0.6c0.4,0.2,0.8,0.5,1.2,0.7
		c3.2,1.8,5.5,3.8,7.3,5.5c0.2,0.2,0.4,0.4,0.6,0.6c0.2,0.2,0.4,0.4,0.6,0.6c0.4,0.4,0.7,0.8,1,1.2c0.6,0.8,1.2,1.4,1.6,1.9
		c0.4,0.5,0.8,0.9,1.2,1.2c0.4,0.3,0.7,0.4,1.1,0.4c1.5,0,3.3-0.6,4.6-1.3c1.4-0.7,2.2-1.6,1.7-2c-0.4-0.4-1-0.9-1.6-1.5
		c-0.7-0.6-1.5-1.3-2.5-2.1c-1.9-1.5-4.3-3.3-7.3-5c-1.8-1.1-3.9-2.1-6.2-3.1c0.1,0,0.2,0,0.3,0.1c1.2,0.2,3.8,0.3,6,0.2
		c0.6,0,1.1,0,1.6-0.1c0.5,0,1-0.1,1.3-0.1c0.8-0.1,1.3-0.1,1.3-0.1s-0.7-0.7-1.8-1.6c-1.1-0.9-2.6-2-4.4-2.9
		c-0.5-0.2-0.9-0.4-1.4-0.6c0,0,0,0,0.1,0c2,0.4,3.9,1,5.9,1.6c3.2,1,6.5,2.1,10.4,2.4c0.5,0,1.2,0.1,1.9,0c0.4,0,0.8,0,1.2,0
		c0.4,0,0.8-0.1,1.3-0.1c0.9-0.1,1.8-0.2,2.7-0.3c0.5-0.1,0.9-0.2,1.4-0.2c0.2,0,0.5-0.1,0.7-0.1l0.3-0.1l0.2,0l0,0l0,0l0,0
		c-0.1,0,0.5-0.3,0.3-0.1l0,0l0.1,0c1.6-0.3,3-0.5,4.1-0.7c0.5-0.1,0.9-0.1,1.3-0.2c0.3-0.1,0.5-0.1,0.5-0.1s-0.4-0.3-1-0.7
		c-0.7-0.4-1.5-1.1-2.5-1.8c-1-0.7-2.2-1.4-3.6-2.1c-0.7-0.3-1.4-0.7-2.1-1c-0.2-0.1-0.4-0.2-0.5-0.2l-0.1-0.1l0,0
		c-0.2,0.1-0.1,0-0.1,0.1l0,0l0,0l0,0l-0.1,0l-0.3-0.1c-0.4-0.1-0.8-0.3-1.1-0.4c-1.4-0.5-2.8-0.7-4.2-0.7c0.2-0.1,0.5-0.2,0.7-0.3
		c0.5,0,1,0.1,1.5,0.1c0.9,0.1,1.7,0.2,2.6,0.3l0.2,0l0.1,0l0,0c-0.1,0,0.1-0.1,0.1,0l0,0l0,0l0,0l0.3,0.1l0.6,0.1l1.3,0.2
		c0.9,0.2,1.7,0.4,2.6,0.6c0.4,0.1,0.9,0.2,1.3,0.3c0.5,0.1,0.9,0.1,1.4,0.2c1,0.1,1.9,0.2,2.9,0.3c0.5,0,1,0.1,1.5,0.1
		c0.5,0,1,0,1.5,0c1.1,0,2.6-0.2,4.3-0.6c0.9-0.2,1.7-0.4,2.7-0.7c0.9-0.3,1.8-0.5,2.7-0.8c3.5-1.1,6.4-2.4,6.4-2.4
		s-0.4-0.3-1.2-0.7c-0.8-0.4-1.9-1-3.2-1.6c-2.7-1.3-6.1-2.7-9.6-3.7c-1.2-0.3-2.4-0.5-3.5-0.5c-0.5,0-0.9,0-1.3,0
		c0.2-0.1,0.3-0.2,0.5-0.3c0,0,0.1-0.1,0.1-0.1c0.6,0,1.3,0,1.9,0c0.9,0,1.8,0.1,2.8,0.2c1,0.1,1.9,0.2,2.9,0.3c2,0.2,4,0.4,6.1,0.5
		c2,0.1,4.2,0.1,6.3-0.2c1.1-0.2,2.6-0.7,4.3-1.4c0.4-0.2,0.8-0.4,1.3-0.5c0.4-0.2,0.8-0.4,1.2-0.6c0.8-0.4,1.7-0.9,2.5-1.4
		c0.4-0.2,0.8-0.5,1.2-0.7c0.4-0.2,0.7-0.5,1.1-0.7c0.7-0.4,1.3-0.9,1.8-1.2c1-0.7,1.6-1.2,1.6-1.2s-2-0.8-5-1.7
		c-3-0.9-6.9-1.9-10.8-2.5c-1.4-0.2-2.6-0.2-3.7-0.1c-0.6,0-1.2,0.1-1.7,0.2c0.2-0.2,0.4-0.4,0.6-0.6c2.6-0.4,5.4-0.5,8.3-0.6
		c2-0.1,4.2-0.2,6.3-0.4c2.1-0.3,4.1-0.7,6.1-1.3c1-0.4,2.4-1.2,3.8-2.2c0.4-0.3,0.7-0.5,1.1-0.8c0.3-0.3,0.7-0.6,1-0.9
		c0.7-0.6,1.4-1.2,2-1.9c0.7-0.6,1.2-1.2,1.8-1.8c0.5-0.6,1-1.1,1.4-1.6c0.4-0.5,0.7-0.8,0.9-1.1c0.2-0.3,0.3-0.4,0.3-0.4
		s-0.5-0.1-1.4-0.2c-0.9-0.1-2.2-0.3-3.7-0.5c-3-0.4-7-0.7-10.9-0.6c-1.4,0-2.6,0.2-3.7,0.5c-0.7,0.2-1.3,0.4-1.9,0.6
		c0.2-0.2,0.3-0.5,0.5-0.7c2.6-0.8,5.4-1.4,8.3-2c2-0.4,4-0.9,5.9-1.5c1.9-0.6,3.8-1.4,5.5-2.4c0.9-0.6,2-1.6,3.2-2.8
		c1.2-1.2,2.2-2.7,3.2-4.2c2-2.9,3.3-5.5,3.3-5.5s-0.5,0-1.3,0c-0.8,0-2.1,0-3.5,0.1c-2.9,0.1-6.6,0.5-10.3,1.2
		c-1.3,0.3-2.5,0.6-3.5,1.1c-0.7,0.3-1.4,0.7-2,1.1c0.1-0.1,0.1-0.2,0.2-0.3c0.1-0.2,0.2-0.3,0.2-0.5c2.4-1.3,5.1-2.4,7.8-3.5
		c1.8-0.7,3.6-1.5,5.3-2.4c1.7-0.9,3.3-1.9,4.8-3.2c0.8-0.7,1.6-1.8,2.5-3.2c0.4-0.7,0.8-1.4,1.2-2.2c0.4-0.8,0.8-1.5,1.1-2.3
		c0.2-0.4,0.3-0.8,0.5-1.1c0.1-0.4,0.3-0.7,0.4-1.1c0.3-0.7,0.5-1.3,0.7-1.8c0.4-1.1,0.6-1.7,0.6-1.7s-0.4,0.1-1.2,0.2
		c-0.7,0.1-1.8,0.3-3.1,0.6c-2.5,0.6-5.9,1.4-9.2,2.7c-1.2,0.5-2.2,1-3.1,1.6c-0.7,0.5-1.4,1-2,1.6c0,0,0,0,0-0.1
		c0.1-0.3,0.2-0.5,0.3-0.8c2.2-1.8,4.6-3.2,7-4.8c1.5-1,3.1-2,4.5-3.1c1.4-1.1,2.7-2.4,3.8-3.8c1.2-1.5,2.4-5,3.2-8.2
		c0.4-1.6,0.7-3,0.8-4.1c0.2-1.1,0.3-1.8,0.3-1.8S109.2,42,107.2,42.9z M101.1,35c0.2-0.5,0.4-1,0.7-1.4c0.5-0.9,1-1.7,1.5-2.3
		c0.5-0.6,1-1.2,1.3-1.5c0.2-0.2,0.3-0.3,0.4-0.4c0.1-0.1,0.2-0.1,0.2-0.1l0.1,0.1c0,0-0.1,0.3-0.2,0.7c-0.1,0.2-0.2,0.5-0.3,0.8
		c-0.1,0.3-0.2,0.6-0.4,1c-0.1,0.4-0.3,0.7-0.5,1.2c-0.2,0.4-0.4,0.8-0.6,1.3c-0.2,0.4-0.5,0.9-0.8,1.3c-0.3,0.4-0.6,0.9-0.8,1.4
		c-0.6,0.9-1,1.8-1.6,2.7c-0.5,0.9-1,1.7-1.4,2.4c-0.4,0.7-0.7,1.3-0.9,1.7c-0.2,0.4-0.4,0.6-0.4,0.6l-0.2-0.1c0,0,0.1-0.2,0.2-0.7
		c0.1-0.4,0.4-1.1,0.6-1.8c0.1-0.4,0.3-0.8,0.5-1.2c0.2-0.4,0.4-0.9,0.6-1.3c0.4-0.9,0.8-1.9,1.3-2.9
		C100.7,35.9,100.9,35.4,101.1,35z M97.4,23.7c0.2-2.2,0.6-3.9,0.8-5.1c0.3-1.2,0.5-1.9,0.5-1.9s0.1,0.7,0.3,1.9
		c0.1,1.2,0.2,3,0.1,5.2c-0.2,2.2-0.5,4.9-1.1,7.5c-0.5,2.5-1.1,4.8-1.3,6C96.9,34.8,96.9,28,97.4,23.7z M92.6,38.4
		c-0.2-0.9-0.4-1.9-0.7-2.9c-0.1-0.5-0.3-1-0.4-1.5c-0.1-0.5-0.3-0.9-0.4-1.4c-0.1-0.5-0.2-0.9-0.3-1.3c-0.1-0.4-0.2-0.8-0.2-1.2
		c-0.1-0.4-0.1-0.7-0.2-1c0-0.3-0.1-0.6-0.1-0.8c-0.1-0.4-0.1-0.7-0.1-0.7l0.1-0.1c0,0,0,0,0.1,0.1c0.1,0.1,0.2,0.2,0.3,0.4
		c0.3,0.4,0.6,0.9,1,1.6c0.3,0.7,0.7,1.6,1,2.5c0.1,0.5,0.2,1,0.3,1.5c0.1,0.5,0.2,1,0.2,1.5c0.2,1,0.3,2.1,0.4,3
		c0,0.5,0.1,0.9,0.1,1.4c0,0.4,0,0.9,0,1.3c0,0.8,0,1.4,0,1.9c0,0.4,0,0.7,0,0.7l-0.2,0c0,0,0-0.3-0.1-0.7c-0.1-0.5-0.2-1.1-0.3-1.9
		C93,40.3,92.8,39.4,92.6,38.4z M87.5,52.5c-0.1-0.5-0.3-1-0.5-1.5c-0.2-0.5-0.4-1-0.5-1.5c-0.1-0.5-0.3-0.9-0.3-1.3
		c-0.1-0.4-0.2-0.8-0.3-1.2c-0.1-0.4-0.1-0.7-0.2-1c-0.1-0.3-0.1-0.6-0.2-0.8c-0.1-0.4-0.1-0.7-0.1-0.7l0.2,0c0,0,0.1,0.1,0.2,0.2
		c0.1,0.1,0.3,0.3,0.4,0.5c0.4,0.4,0.8,1,1.2,1.8c0.4,0.8,0.8,1.7,1.1,2.6c0.1,0.5,0.2,1,0.3,1.5c0.1,0.5,0.1,1,0.2,1.6
		c0.1,1,0.2,2.1,0.3,3.1c0,0.5,0,1,0,1.4c0,0.4,0,0.9,0,1.3c0,0.8-0.1,1.4-0.1,1.9c0,0.5-0.1,0.7-0.1,0.7l-0.2,0c0,0,0-0.3-0.1-0.7
		c0-0.5-0.1-1.1-0.2-1.9c-0.1-0.8-0.3-1.7-0.4-2.7C88,54.5,87.8,53.5,87.5,52.5z M80.4,64.2c-0.1-0.4-0.2-0.9-0.2-1.2
		c-0.1-0.4-0.1-0.7-0.2-1c-0.1-0.3-0.1-0.6-0.2-0.8c-0.1-0.4-0.1-0.7-0.1-0.7l0.2,0c0,0,0.1,0.1,0.2,0.2c0.1,0.1,0.3,0.3,0.5,0.5
		c0.4,0.5,0.8,1.2,1.3,2c0.4,0.8,0.8,1.8,1.1,2.8c0.1,0.5,0.2,1,0.2,1.6c0.1,0.5,0.1,1.1,0.1,1.6c0.1,1.1,0.1,2.1,0.1,3.1
		c0,0.5,0,1-0.1,1.4c-0.1,0.4-0.1,0.9-0.2,1.3c-0.1,0.8-0.2,1.4-0.3,1.9c-0.1,0.4-0.2,0.7-0.2,0.7l-0.2-0.1c0,0,0-0.3,0-0.7
		c0-0.5,0-1.2-0.1-2c-0.1-0.8-0.1-1.7-0.2-2.8c-0.1-1-0.3-2.1-0.5-3.2c-0.1-0.5-0.2-1.1-0.4-1.6c-0.2-0.5-0.3-1-0.5-1.5
		C80.6,65.1,80.4,64.7,80.4,64.2z M72.8,75.4c0,0,0.1,0.1,0.2,0.2c0.1,0.1,0.3,0.4,0.5,0.6c0.4,0.5,0.8,1.3,1.2,2.2
		c0.4,0.9,0.7,1.9,0.9,3c0.1,0.5,0.1,1.1,0.1,1.6c0,0.5,0,1.1,0,1.6c0,1.1-0.1,2.2-0.3,3.1c-0.1,0.5-0.1,1-0.2,1.4
		c-0.1,0.4-0.2,0.8-0.3,1.2c-0.2,0.8-0.4,1.4-0.6,1.8c-0.2,0.4-0.2,0.7-0.2,0.7l-0.2-0.1c0,0,0-0.3,0.1-0.8c0.1-0.5,0.1-1.2,0.2-2
		c0-0.8,0.1-1.8,0.1-2.8c0-1-0.1-2.1-0.2-3.3c-0.1-0.6-0.1-1.1-0.3-1.7c-0.1-0.6-0.3-1.1-0.3-1.6c-0.1-0.5-0.2-1-0.2-1.5
		c0-0.5-0.1-0.9-0.1-1.3c-0.1-0.4-0.1-0.7-0.1-1.1c0-0.3-0.1-0.6-0.1-0.8c-0.1-0.5-0.1-0.7-0.1-0.7L72.8,75.4z M63.2,106
		c0.1-0.5,0.3-1.1,0.5-1.9c0.2-0.8,0.3-1.8,0.5-2.8c0.1-1,0.2-2.2,0.2-3.3c0-0.6,0-1.1,0-1.7c0-0.6-0.1-1.2-0.1-1.7c0-0.5,0-1,0-1.5
		c0-0.5,0-0.9,0-1.3c0-0.4,0-0.8,0-1.1c0-0.3,0-0.6,0-0.9c0-0.5,0-0.7,0-0.7l0.2,0.1c0,0,0.1,0.1,0.2,0.3c0.1,0.2,0.2,0.4,0.4,0.7
		c0.3,0.6,0.7,1.4,1,2.4c0.3,1,0.5,2.1,0.5,3.2c0,0.5,0,1.1-0.1,1.6c-0.1,0.5-0.1,1.1-0.2,1.6c-0.2,1.1-0.4,2.1-0.7,3.1
		c-0.1,0.5-0.3,0.9-0.5,1.4c-0.2,0.4-0.3,0.8-0.5,1.2c-0.3,0.7-0.6,1.3-0.8,1.7c-0.2,0.4-0.3,0.6-0.3,0.6l-0.2-0.1
		C63,106.7,63,106.5,63.2,106z M50.4,118.2c0.2-0.4,0.5-1,0.8-1.8c0.3-0.8,0.7-1.6,1-2.6c0.3-1,0.6-2.1,0.8-3.2
		c0.1-0.6,0.2-1.1,0.3-1.7c0.1-0.6,0.1-1.2,0.1-1.7c0.1-0.5,0.1-1,0.2-1.5c0.1-0.5,0.1-0.9,0.2-1.3c0-0.4,0.1-0.8,0.2-1.1
		c0-0.3,0.1-0.6,0.1-0.9c0.1-0.5,0.1-0.8,0.1-0.8l0.2,0.1c0,0,0,0.1,0.1,0.3c0.1,0.2,0.2,0.4,0.3,0.8c0.2,0.6,0.4,1.5,0.5,2.5
		c0.1,1,0.1,2.1,0,3.2c-0.1,0.5-0.2,1.1-0.4,1.6c-0.1,0.5-0.3,1-0.5,1.5c-0.4,1-0.8,2-1.2,2.9c-0.2,0.4-0.5,0.9-0.7,1.2
		c-0.2,0.4-0.5,0.7-0.7,1.1c-0.5,0.6-0.8,1.2-1.1,1.5c-0.3,0.4-0.5,0.5-0.5,0.5l-0.1-0.2C50.1,118.9,50.2,118.6,50.4,118.2z
		 M35.8,128.2c0.3-0.4,0.7-0.9,1.3-1.5c0.5-0.6,1.1-1.4,1.6-2.3c0.5-0.9,1-1.8,1.5-2.8c0.2-0.5,0.4-1,0.6-1.5c0.2-0.5,0.3-1,0.5-1.5
		c0.2-0.5,0.4-0.9,0.5-1.4c0.2-0.4,0.3-0.8,0.5-1.2c0.1-0.4,0.3-0.7,0.4-1c0.1-0.3,0.2-0.6,0.3-0.8c0.2-0.5,0.2-0.7,0.2-0.7l0.1,0.1
		c0,0,0,0.1,0,0.3c0,0.2,0.1,0.4,0.1,0.7c0.1,0.6,0.1,1.5,0,2.4c-0.1,0.9-0.4,2-0.7,2.9c-0.2,0.5-0.4,1-0.7,1.4
		c-0.3,0.5-0.5,0.9-0.8,1.4c-0.6,0.9-1.2,1.7-1.8,2.5c-0.3,0.4-0.6,0.8-0.9,1.1c-0.3,0.3-0.6,0.6-0.9,0.9c-0.6,0.5-1.1,1-1.4,1.2
		c-0.4,0.3-0.6,0.4-0.6,0.4l-0.1-0.1C35.4,128.7,35.5,128.5,35.8,128.2z M19.6,135c0.4-0.2,0.9-0.6,1.6-1c0.6-0.4,1.3-1,2.1-1.6
		c0.4-0.3,0.7-0.6,1.1-1c0.4-0.3,0.7-0.7,1.1-1.1c0.3-0.4,0.7-0.8,1-1.2c0.3-0.4,0.6-0.8,0.9-1.2c0.3-0.4,0.6-0.7,0.8-1.1
		c0.3-0.4,0.5-0.7,0.7-1c0.2-0.3,0.4-0.6,0.6-0.8c0.2-0.2,0.3-0.5,0.4-0.7c0.2-0.4,0.4-0.6,0.4-0.6l0.1,0.1c0,0,0,0.1,0,0.2
		c0,0.1,0,0.4-0.1,0.6c0,0.3-0.1,0.6-0.2,0.9c-0.1,0.3-0.2,0.7-0.4,1.1c-0.3,0.8-0.8,1.6-1.4,2.4c-0.3,0.4-0.7,0.7-1,1.1
		c-0.4,0.4-0.7,0.7-1.1,1c-0.4,0.3-0.8,0.7-1.2,1c-0.4,0.3-0.8,0.6-1.2,0.9c-0.4,0.3-0.8,0.5-1.2,0.7c-0.4,0.2-0.8,0.4-1.1,0.6
		c-0.7,0.4-1.3,0.6-1.7,0.8c-0.4,0.2-0.6,0.3-0.6,0.3l-0.1-0.1C19,135.4,19.2,135.3,19.6,135z M5.6,138.5c0.3-0.1,0.7-0.3,1.2-0.6
		c0.5-0.3,1-0.6,1.6-0.9c0.6-0.3,1.2-0.7,1.8-1.1c0.3-0.2,0.6-0.4,0.9-0.6c0.3-0.2,0.5-0.4,0.8-0.6c0.3-0.2,0.5-0.4,0.8-0.5
		c0.3-0.2,0.5-0.3,0.7-0.4c0.2-0.1,0.4-0.3,0.6-0.4c0.2-0.1,0.4-0.2,0.5-0.3c0.3-0.1,0.4-0.2,0.4-0.2L15,133c0,0-0.1,0.2-0.2,0.5
		c-0.2,0.3-0.4,0.7-0.8,1.1c-0.4,0.4-0.8,0.9-1.4,1.3c-0.3,0.2-0.6,0.4-0.9,0.5c-0.3,0.2-0.6,0.3-1,0.5c-0.7,0.3-1.3,0.6-1.9,0.9
		c-0.3,0.1-0.6,0.2-0.9,0.3c-0.3,0.1-0.6,0.2-0.8,0.3c-0.5,0.2-0.9,0.3-1.3,0.4c-0.3,0.1-0.5,0.1-0.5,0.1l0-0.1
		C5.2,138.8,5.4,138.7,5.6,138.5z M16.7,142.1c0.3,0.2,0.4,0.4,0.4,0.4l0,0.1c0,0-0.2,0-0.5,0c-0.2,0-0.4,0-0.6,0
		c-0.2,0-0.5,0-0.8-0.1c-0.3,0-0.6-0.1-0.9-0.1c-0.3,0-0.6-0.1-1-0.2c-0.3-0.1-0.7-0.2-1-0.3c-0.3-0.1-0.7-0.2-1.1-0.3
		c-0.7-0.1-1.4-0.3-2.1-0.4c-0.7-0.1-1.3-0.2-1.8-0.3c-0.5-0.1-1-0.1-1.3-0.2c-0.3,0-0.5-0.1-0.5-0.1v-0.1c0,0,0.2,0,0.5,0
		c0.3,0,0.8-0.1,1.3-0.1c0.3,0,0.6,0,0.9,0c0.3,0,0.6,0,1,0c0.7,0,1.4,0,2.2,0.1c0.4,0,0.7,0.1,1.1,0.1c0.4,0,0.7,0.1,1.1,0.1
		c0.7,0.1,1.3,0.4,1.9,0.6C16,141.7,16.4,141.9,16.7,142.1z M34.8,138.1c0.9,0.2,1.7,0.5,2.2,0.7c0.3,0.1,0.5,0.2,0.6,0.3
		c0.1,0.1,0.2,0.1,0.2,0.1l0,0.2c0,0-0.3,0-0.8,0c-0.3,0-0.6,0-1,0c-0.4,0-0.8,0-1.2,0c-0.4,0-0.9,0-1.4,0c-0.5,0-1-0.1-1.6-0.1
		c-0.5,0-1.1-0.1-1.7-0.2c-0.6-0.1-1.1-0.1-1.7-0.2c-0.6-0.1-1.1-0.1-1.7-0.1c-0.5,0-1.1-0.1-1.6-0.1c-1,0-2-0.1-2.8-0.1
		c-0.8,0-1.5,0-1.9,0c-0.5,0-0.7,0-0.7,0l0-0.1c0,0,0.3,0,0.7-0.1c0.5-0.1,1.1-0.1,1.9-0.2c0.4,0,0.8-0.1,1.3-0.1
		c0.5,0,0.9-0.1,1.5-0.1c0.5,0,1,0,1.6-0.1c0.5,0,1.1,0,1.6-0.1c0.6,0,1.1,0,1.7,0c0.6,0,1.1,0,1.7,0
		C32.8,137.7,33.8,137.8,34.8,138.1z M49,129.5c1.1,0,2.3,0.1,3.3,0.3c1,0.2,1.9,0.4,2.5,0.6c0.3,0.1,0.6,0.2,0.7,0.3
		c0.2,0.1,0.3,0.1,0.3,0.1l0,0.2c0,0-0.3,0-0.9,0.1c-0.3,0-0.6,0.1-1,0.1c-0.4,0-0.8,0.1-1.3,0.1c-0.5,0-1,0.1-1.5,0.1
		c-0.5,0-1.1,0.1-1.6,0.1c-0.6,0-1.2,0-1.7,0c-0.6,0-1.2,0-1.8,0c-1.2,0-2.4,0.1-3.4,0.2c-1.1,0.1-2,0.2-2.8,0.2
		c-0.8,0.1-1.5,0.2-1.9,0.2c-0.5,0.1-0.7,0.1-0.7,0.1l-0.1-0.2c0,0,0.2-0.1,0.7-0.2c0.4-0.2,1.1-0.3,1.8-0.5
		c0.4-0.1,0.8-0.2,1.2-0.3c0.4-0.1,0.9-0.2,1.4-0.3c1-0.2,2.1-0.4,3.3-0.6c0.6-0.1,1.1-0.2,1.7-0.3C47.9,129.5,48.4,129.5,49,129.5z
		 M62.9,118.8c0.6-0.2,1.1-0.3,1.7-0.4c1.2-0.2,2.4-0.2,3.5-0.1c1.1,0.1,2,0.2,2.7,0.3c0.3,0.1,0.6,0.1,0.8,0.2
		c0.2,0.1,0.3,0.1,0.3,0.1l0.1,0.2c0,0-0.3,0.1-0.9,0.2c-0.3,0.1-0.6,0.2-1,0.2c-0.4,0.1-0.8,0.2-1.3,0.3c-0.5,0.1-1,0.2-1.5,0.3
		c-0.5,0.1-1.1,0.2-1.7,0.3c-0.6,0.1-1.2,0.1-1.8,0.2c-0.6,0-1.3,0.1-1.9,0.2c-1.2,0.2-2.4,0.4-3.5,0.6c-1.1,0.2-2.1,0.4-2.9,0.6
		c-0.8,0.2-1.5,0.4-2,0.5c-0.2,0.1-0.4,0.1-0.5,0.1c-0.1,0-0.2,0-0.2,0l-0.1-0.2c0,0,0.2-0.1,0.7-0.3c0.4-0.2,1-0.5,1.8-0.8
		c0.4-0.2,0.8-0.3,1.2-0.5c0.4-0.2,0.9-0.3,1.4-0.5c1-0.4,2.1-0.7,3.2-1C61.7,119.1,62.3,118.9,62.9,118.8z M74.5,105.7
		c0.5-0.3,1.1-0.5,1.6-0.7c0.5-0.3,1.1-0.5,1.6-0.7c1.1-0.4,2.3-0.6,3.4-0.7c1.1-0.1,2-0.2,2.7-0.2c0.3,0,0.6,0,0.8,0
		c0.2,0,0.3,0,0.3,0l0.1,0.2c0,0-0.3,0.1-0.8,0.4c-0.2,0.1-0.5,0.3-0.9,0.4c-0.3,0.2-0.7,0.3-1.2,0.5c-0.4,0.2-0.9,0.4-1.4,0.6
		c-0.5,0.2-1,0.4-1.6,0.6c-0.6,0.2-1.2,0.3-1.8,0.5c-0.6,0.1-1.2,0.3-1.8,0.5c-1.2,0.4-2.3,0.8-3.4,1.1c-1.1,0.4-2,0.7-2.9,1
		c-0.8,0.3-1.5,0.6-1.9,0.8c-0.5,0.2-0.7,0.3-0.7,0.3l-0.2-0.2c0,0,0.2-0.1,0.6-0.4c0.4-0.3,0.9-0.7,1.6-1.1
		c0.4-0.2,0.7-0.4,1.2-0.7c0.4-0.3,0.9-0.5,1.3-0.7C72.4,106.7,73.4,106.2,74.5,105.7z M84.9,89.9c0.5-0.3,1-0.7,1.4-1
		c0.5-0.3,1-0.7,1.4-0.9c1-0.6,2.1-1,3.1-1.3c1-0.3,1.9-0.5,2.6-0.6c0.3-0.1,0.6-0.1,0.8-0.1c0.2,0,0.3,0,0.3,0l0.1,0.2
		c0,0-0.3,0.2-0.7,0.5c-0.2,0.2-0.5,0.3-0.8,0.6c-0.3,0.2-0.6,0.5-1,0.7c-0.4,0.3-0.8,0.5-1.2,0.8c-0.4,0.3-0.9,0.6-1.4,0.8
		c-0.5,0.3-1.1,0.5-1.6,0.8c-0.6,0.3-1.1,0.5-1.7,0.8c-1.1,0.6-2.1,1.1-3.1,1.7c-0.9,0.6-1.9,1.1-2.6,1.5c-0.7,0.4-1.3,0.8-1.8,1.1
		c-0.4,0.3-0.7,0.4-0.7,0.4l-0.2-0.2c0,0,0.2-0.2,0.5-0.5c0.3-0.3,0.8-0.8,1.4-1.4c0.3-0.3,0.7-0.6,1-0.9c0.4-0.3,0.8-0.6,1.2-1
		C83,91.2,83.9,90.5,84.9,89.9z M92.6,72.7c0.4-0.4,0.8-0.8,1.2-1.2c0.4-0.4,0.8-0.8,1.2-1.2c0.9-0.7,1.8-1.3,2.7-1.7
		c0.9-0.5,1.7-0.8,2.3-1c0.3-0.1,0.5-0.2,0.7-0.2c0.2,0,0.3-0.1,0.3-0.1l0.2,0.1c0,0-0.2,0.2-0.5,0.6c-0.2,0.2-0.4,0.4-0.6,0.7
		c-0.2,0.2-0.5,0.5-0.8,0.8c-0.3,0.3-0.7,0.6-1,1c-0.4,0.3-0.8,0.7-1.2,1c-0.4,0.3-0.9,0.7-1.4,1c-0.5,0.3-1,0.7-1.4,1.1
		c-0.9,0.7-1.8,1.5-2.7,2.1c-0.8,0.7-1.6,1.3-2.2,1.9c-0.6,0.6-1.2,1-1.5,1.4c-0.4,0.3-0.6,0.5-0.6,0.5l-0.2-0.1
		c0,0,0.2-0.2,0.4-0.6c0.3-0.4,0.7-0.9,1.2-1.6c0.3-0.3,0.5-0.7,0.8-1c0.3-0.4,0.7-0.7,1-1.1C91,74.3,91.7,73.5,92.6,72.7z
		 M104.2,49.1c-0.1,0.2-0.3,0.5-0.5,0.7c-0.2,0.3-0.4,0.6-0.6,0.9c-0.2,0.3-0.5,0.7-0.8,1.1c-0.3,0.4-0.6,0.8-0.9,1.2
		c-0.3,0.4-0.7,0.8-1.1,1.2c-0.4,0.4-0.8,0.8-1.2,1.2c-0.8,0.8-1.5,1.7-2.1,2.5c-0.7,0.8-1.3,1.5-1.8,2.2c-0.5,0.6-0.9,1.2-1.2,1.6
		c-0.3,0.4-0.5,0.6-0.5,0.6l-0.2-0.1c0,0,0.1-0.2,0.3-0.7c0.2-0.4,0.5-1,0.9-1.7c0.2-0.3,0.4-0.7,0.7-1.1c0.2-0.4,0.5-0.8,0.8-1.2
		c0.5-0.9,1.1-1.8,1.8-2.7c0.3-0.5,0.6-0.9,1-1.4c0.3-0.5,0.6-0.9,1-1.3c0.7-0.8,1.5-1.5,2.2-2.1c0.7-0.6,1.4-1,1.9-1.3
		c0.2-0.1,0.5-0.2,0.6-0.3c0.1-0.1,0.2-0.1,0.2-0.1l0.1,0.1C104.6,48.4,104.4,48.6,104.2,49.1z"/>
</g>
<g>
	<path class="st2" d="M112.2,144.2C112.2,144.2,112.2,144.2,112.2,144.2c0-0.4,0-0.8,0.1-1.2c0-0.2,0.1-0.5,0.2-0.7
		c0.1-0.4,0.2-0.7,0.4-1.1c0,0,0-0.1,0.1-0.1c-0.1,0-0.2,0-0.3-0.1c-2.6-1.9-4.8-4.3-7.6-6.2c-0.5-0.4-1.3-0.8-2.2-1.2
		c-0.9-0.5-1.9-0.9-2.8-1.4c-0.5-0.2-0.9-0.4-1.3-0.7c-0.4-0.2-0.8-0.4-1.1-0.6c-0.6-0.3-1-0.5-1-0.5s0.1,1,0.6,2.3
		c0.4,1.4,1.2,3.1,2.4,4.8c0.3,0.4,0.7,0.8,1,1.1c0,0-0.1,0-0.1,0c-1.6-1.2-3-2.7-4.3-4.2c-2.1-2.5-3.8-5.3-5.8-7.9
		c-0.5-0.7-1.4-1.6-2.3-2.7c-0.4-0.5-0.9-1-1.4-1.6l-0.7-0.8l-0.3-0.4l-0.2-0.2l-0.1-0.1l0,0l0,0l0,0c-0.1,0,0.5,0.3,0.3,0.1l0,0
		l-0.1-0.1c-1.1-1.2-2.1-2.4-2.9-3.2c-0.4-0.4-0.7-0.8-0.8-1c-0.2-0.2-0.2-0.3-0.2-0.3s-0.1,0.4-0.2,1.2c-0.2,0.7-0.2,1.9-0.3,3.1
		c0,1.3,0,2.8,0.1,4.3c0.1,0.8,0.2,1.6,0.3,2.4c0,0.2,0.1,0.4,0.1,0.6l0,0.1l0,0c-0.2-0.1-0.1,0-0.1-0.1l0,0l0,0l0,0l0,0.1l0.1,0.3
		c0.1,0.4,0.2,0.8,0.3,1.2c0.4,1.4,1,2.6,1.9,3.7c-0.1,0-0.2-0.1-0.3-0.1c-0.1-0.1-0.3-0.1-0.4-0.2c-1.3-1.8-2.2-3.8-3-5.9
		c-0.3-0.9-0.7-1.7-1-2.6c-0.2-0.4-0.3-0.9-0.5-1.3c-0.1-0.4-0.2-0.9-0.4-1.3c-0.2-0.9-0.5-1.7-0.7-2.6c-0.1-0.4-0.2-0.8-0.4-1.3
		c-0.1-0.4-0.2-0.8-0.4-1.3c-0.3-0.9-0.9-2.1-1.6-3.4c-0.7-1.3-1.4-2.7-2.1-4c-0.4-0.6-0.7-1.3-1-1.8c-0.3-0.6-0.5-1.1-0.8-1.5
		c-0.5-0.8-0.7-1.4-0.7-1.4s-0.9,1.8-1.8,4.6c-0.9,2.8-1.9,6.5-1.9,10.1c0,1.3,0.2,2.5,0.5,3.5c0.1,0.4,0.3,0.8,0.5,1.2
		c-0.2-0.2-0.4-0.3-0.6-0.5c-0.9-2.3-1.3-4.8-1.5-7.3c-0.1-1.9-0.2-3.9-0.2-5.8c0-2-0.1-3.9-0.3-5.7c-0.1-1-0.4-2.3-0.8-3.6
		c-0.1-0.3-0.2-0.7-0.3-1c-0.1-0.3-0.2-0.7-0.3-1.1c-0.2-0.7-0.5-1.4-0.7-2c-0.5-1.3-0.9-2.5-1.3-3.3c-0.4-0.8-0.6-1.4-0.6-1.4
		s-1.3,1.7-2.9,4.4c-0.8,1.3-1.6,3-2.4,4.7c-0.2,0.4-0.4,0.9-0.6,1.3c-0.2,0.4-0.3,0.9-0.5,1.4c-0.3,0.9-0.6,1.9-0.8,2.8
		c-0.3,1.3-0.4,2.6-0.4,3.8c0,0.6,0.1,1.1,0.2,1.6c-0.2-0.2-0.4-0.4-0.6-0.6c-0.4-2.6-0.2-5.4,0.2-8.1c0.3-2,0.6-4,1-5.9
		c0.3-2,0.6-3.8,0.7-5.6c0.1-1-0.1-2.2-0.4-3.6c-0.3-1.3-0.7-2.8-1.1-4c-0.2-0.6-0.4-1.3-0.6-1.8c-0.2-0.6-0.3-1.1-0.5-1.5
		c-0.3-0.8-0.5-1.4-0.5-1.4s-0.4,0.4-1,1c-0.6,0.7-1.5,1.6-2.4,2.8c-1.9,2.4-4.2,5.7-5.7,9.3c-0.5,1.3-0.9,2.5-1,3.7
		c-0.1,0.7-0.1,1.3,0,2c-0.2-0.2-0.3-0.5-0.5-0.7c0.1-2.7,0.7-5.6,1.5-8.3c0.6-1.9,1.2-3.7,1.8-5.6c0.6-1.8,1-3.6,1.3-5.3
		c0.2-0.9,0.1-2.2-0.1-3.5c-0.1-0.7-0.2-1.4-0.3-2.1c-0.1-0.7-0.3-1.4-0.4-2.1c-0.3-1.3-0.6-2.6-0.8-3.5c-0.2-0.9-0.4-1.4-0.4-1.4
		s-0.4,0.3-1,0.9c-0.6,0.6-1.5,1.4-2.6,2.4c-2,2-4.6,4.9-6.5,8.2c-0.7,1.2-1.1,2.3-1.4,3.4c-0.2,0.8-0.3,1.5-0.3,2.2
		c-0.1-0.3-0.3-0.5-0.4-0.8c0.1-0.9,0.3-1.8,0.6-2.7c0.3-0.9,0.6-1.8,0.9-2.7c0.3-0.9,0.7-1.8,1.1-2.7c0.8-1.8,1.5-3.5,2.2-5.2
		c0.7-1.7,1.3-3.4,1.7-5c0.4-1.8,0-5-0.4-7.8c-0.1-0.3-0.1-0.7-0.2-1c-0.1-0.3-0.1-0.6-0.2-1c-0.1-0.6-0.2-1.2-0.3-1.6
		c-0.2-0.9-0.3-1.5-0.3-1.5s-0.4,0.2-1,0.7c-0.6,0.5-1.5,1.1-2.5,2c-2,1.7-4.5,4.1-6.6,7.1c-0.7,1-1.3,2.1-1.6,3.2
		c-0.3,0.8-0.5,1.7-0.6,2.5c-0.1-0.3-0.2-0.6-0.3-0.9c0.6-2.8,1.9-5.4,3.1-7.9c0.8-1.6,1.7-3.3,2.4-4.8c0.7-1.6,1.4-3.2,1.7-4.8
		c0.2-0.9,0.3-2.1,0.2-3.5c-0.1-1.4-0.2-2.9-0.4-4.3c-0.2-1.4-0.4-2.7-0.6-3.7c-0.2-1-0.3-1.6-0.3-1.6s-1.2,0.8-3,2.2
		c-0.9,0.7-1.9,1.6-2.9,2.6c-1,1-2,2.2-3,3.5c-1.3,1.8-2,3.7-2.3,5.6c-0.1-0.3-0.2-0.7-0.2-1c0.3-1,0.6-2,1-3
		c0.7-1.6,1.4-3.2,2.2-4.7c0.8-1.5,1.5-3,2.2-4.5c0.6-1.5,1.2-3,1.5-4.5c0.1-0.8,0.2-2.1,0.1-3.5c-0.1-1.4-0.3-3-0.5-4.4
		c-0.2-1.5-0.5-2.8-0.7-3.8c-0.2-1-0.4-1.6-0.4-1.6S24,18,23.7,18.3c-0.4,0.3-0.9,0.8-1.5,1.4c-1.3,1.2-2.9,3.1-4.5,5.5
		c-0.2,0.3-0.4,0.7-0.6,1c0.4-3,0.5-6.1-0.1-9.1c-0.3-1.8-0.8-3.8-1.4-5.6C15,9.6,14.5,7.8,14,6.3c-0.9-3.1-1.4-5.3-1.4-5.3
		s-0.5,2.2-1.3,5.4c-0.4,1.6-0.8,3.4-1.2,5.4c-0.4,1.9-0.7,4-0.7,5.9c0,1.9,0.1,3.9,0.6,5.7c0.3,1.2,0.6,2.4,1,3.5
		c-0.3-0.3-0.5-0.6-0.8-0.9c-2-2.1-4-3.7-5.5-4.8c-0.7-0.6-1.3-1-1.7-1.3c-0.4-0.3-0.7-0.4-0.7-0.4s0,0.7-0.1,1.8
		c0,1.1,0,2.7,0.1,4.3c0,0.8,0.1,1.7,0.2,2.5c0.1,0.8,0.2,1.7,0.3,2.4c0.3,1.6,0.6,2.9,1,3.8c0.8,1.6,1.7,3,2.8,4.4
		c1.1,1.3,2.3,2.6,3.6,3.8c1.3,1.2,2.6,2.4,3.9,3.7c0.8,0.8,1.5,1.6,2.2,2.4c0.1,0.3,0.1,0.7,0.2,1c-0.5-0.8-1.2-1.5-1.9-2.2
		c-0.8-0.8-1.6-1.5-2.6-2.1c-1.4-0.9-2.8-1.7-4.2-2.3c-1.3-0.7-2.6-1.2-3.6-1.7c-2.1-0.9-3.6-1.4-3.6-1.4s0.1,0.7,0.3,1.8
		C1,42.8,1.3,44.4,1.7,46c0.8,3.3,2.1,6.9,3.3,8.5c1.1,1.5,2.5,2.8,4,4c1.5,1.2,3.1,2.2,4.7,3.3c2.5,1.6,5.1,3.2,7.3,5
		c0.1,0.3,0.2,0.6,0.3,0.8c0,0,0,0,0,0.1c-0.6-0.6-1.3-1.2-2.1-1.7c-0.9-0.7-2-1.2-3.2-1.7c-3.4-1.3-6.9-2.2-9.6-2.8
		c-1.3-0.3-2.4-0.5-3.2-0.6C2.5,60.7,2,60.6,2,60.6s0.2,0.7,0.6,1.8c0.2,0.6,0.4,1.2,0.7,1.9c0.1,0.4,0.3,0.7,0.4,1.1
		c0.2,0.4,0.3,0.8,0.5,1.2c0.4,0.8,0.8,1.6,1.2,2.4c0.4,0.8,0.8,1.6,1.3,2.3c0.9,1.4,1.8,2.7,2.6,3.4c1.5,1.3,3.2,2.4,5,3.3
		c1.8,0.9,3.7,1.7,5.6,2.5c2.8,1.2,5.7,2.2,8.2,3.6c0.1,0.2,0.2,0.3,0.2,0.5c0.1,0.1,0.1,0.2,0.2,0.4c-0.6-0.4-1.4-0.8-2.1-1.2
		c-1.1-0.5-2.3-0.9-3.6-1.2C18.9,82,15,81.6,12,81.5c-1.5-0.1-2.8-0.1-3.6-0.1c-0.9,0-1.4,0-1.4,0s1.4,2.7,3.5,5.7
		c1,1.5,2.2,3,3.4,4.3c1.2,1.3,2.3,2.4,3.3,3c1.8,1.1,3.8,1.9,5.8,2.5c2,0.6,4.2,1.1,6.2,1.6c3,0.6,6,1.2,8.7,2.1
		c0.2,0.2,0.3,0.5,0.5,0.7c-0.6-0.3-1.3-0.5-2-0.6c-1.2-0.3-2.5-0.5-3.9-0.5c-4.1-0.1-8.2,0.2-11.4,0.6c-1.6,0.2-2.9,0.4-3.8,0.5
		c-0.9,0.2-1.5,0.3-1.5,0.3s0.1,0.2,0.4,0.4c0.2,0.3,0.6,0.7,1,1.1c0.4,0.5,0.9,1,1.5,1.6c0.5,0.6,1.2,1.3,1.8,1.9
		c0.7,0.7,1.4,1.3,2.1,1.9c0.4,0.3,0.7,0.6,1.1,0.9c0.4,0.3,0.7,0.6,1.1,0.8c1.5,1.1,2.9,1.9,4,2.3c2.1,0.7,4.2,1.1,6.4,1.4
		c2.2,0.2,4.4,0.3,6.5,0.4c3,0.1,5.9,0.2,8.6,0.6c0.2,0.2,0.4,0.4,0.6,0.6c-0.6-0.1-1.1-0.2-1.8-0.2c-1.2-0.1-2.5-0.1-3.9,0.1
		c-4,0.6-8.1,1.6-11.2,2.6c-3.1,0.9-5.3,1.7-5.3,1.7s0.7,0.5,1.7,1.2c0.5,0.4,1.2,0.8,1.9,1.3c0.4,0.2,0.7,0.5,1.1,0.7
		c0.4,0.2,0.8,0.5,1.2,0.7c0.8,0.5,1.7,1,2.6,1.4c0.4,0.2,0.9,0.4,1.3,0.7c0.4,0.2,0.9,0.4,1.3,0.6c1.7,0.7,3.3,1.2,4.5,1.4
		c2.2,0.3,4.4,0.3,6.5,0.2c2.2-0.1,4.3-0.4,6.3-0.5c1-0.1,2-0.2,3-0.3c1-0.1,2-0.2,2.9-0.2c0.7,0,1.3,0,2,0c0,0,0.1,0.1,0.1,0.1
		c0.2,0.1,0.4,0.2,0.5,0.4c-0.5,0-0.9,0-1.4,0c-1.1,0-2.3,0.2-3.6,0.5c-3.6,1-7.3,2.5-10.1,3.8c-1.4,0.7-2.6,1.2-3.4,1.7
		c-0.8,0.4-1.3,0.7-1.3,0.7s3,1.3,6.7,2.5c0.9,0.3,1.9,0.6,2.8,0.8c0.9,0.3,1.9,0.5,2.8,0.7c1.8,0.4,3.4,0.6,4.5,0.6
		c0.5,0,1.1,0,1.6,0c0.5,0,1.1-0.1,1.6-0.1c1.1-0.1,2.1-0.2,3.1-0.3c0.5-0.1,1-0.1,1.5-0.2c0.5-0.1,0.9-0.2,1.4-0.3
		c0.9-0.2,1.8-0.4,2.7-0.6l1.3-0.3l0.7-0.1l0.3-0.1l0,0l0,0l0,0c0,0,0.2,0.1,0.1,0l0,0l0.1,0l0.2,0c0.9-0.1,1.8-0.3,2.7-0.4
		c0.5,0,1.1-0.1,1.6-0.1c0.2,0.1,0.5,0.2,0.7,0.3c-1.4,0.1-2.9,0.3-4.4,0.8c-0.4,0.1-0.8,0.3-1.2,0.4l-0.3,0.1l-0.1,0l0,0l0,0l0,0
		c0,0,0.1,0.1-0.1-0.1l0,0L76,138c-0.2,0.1-0.4,0.2-0.6,0.2c-0.7,0.3-1.5,0.7-2.2,1c-1.4,0.7-2.6,1.5-3.7,2.2
		c-1.1,0.7-1.9,1.4-2.6,1.8c-0.7,0.4-1,0.7-1,0.7s0.2,0.1,0.6,0.1c0.4,0.1,0.8,0.2,1.4,0.3c1.1,0.2,2.6,0.4,4.3,0.7l0.1,0l0,0
		c-0.2-0.1,0.3,0.2,0.3,0.1l0,0l0,0l0,0l0.2,0l0.4,0.1c0.2,0,0.5,0.1,0.7,0.1c0.5,0.1,1,0.2,1.5,0.2c1,0.2,1.9,0.3,2.8,0.3
		c0.5,0,0.9,0.1,1.3,0.1c0.4,0,0.8,0,1.2,0c0.8,0,1.4,0,2,0c4-0.4,7.5-1.5,10.8-2.5c2.1-0.6,4.1-1.3,6.2-1.7c0,0,0,0,0.1,0
		c-0.5,0.2-1,0.3-1.5,0.6c-1.8,0.9-3.4,2.1-4.6,3c-1.2,0.9-1.9,1.7-1.9,1.7s0.5,0,1.3,0.1c0.4,0,0.9,0.1,1.4,0.1
		c0.5,0,1.1,0,1.7,0.1c2.4,0.1,5,0.1,6.3-0.2c0.1,0,0.2,0,0.3-0.1c-2.4,1-4.5,2.1-6.5,3.2c-3.1,1.8-5.7,3.7-7.7,5.2
		c-1,0.8-1.9,1.6-2.6,2.2c-0.7,0.6-1.3,1.1-1.7,1.5c-0.5,0.4,0.4,1.3,1.8,2.1c1.4,0.8,3.3,1.4,4.8,1.3c0.4,0,0.7-0.1,1.1-0.4
		c0.4-0.3,0.8-0.7,1.3-1.2c0.5-0.5,1.1-1.2,1.7-2c0.3-0.4,0.7-0.8,1.1-1.2c0.2-0.2,0.4-0.4,0.6-0.7c0.2-0.2,0.4-0.4,0.7-0.7
		c1.8-1.8,4.3-3.9,7.6-5.8c0.4-0.2,0.8-0.5,1.3-0.7c0.4-0.2,0.9-0.4,1.4-0.7c0.2-0.1,0.5-0.2,0.7-0.3c0.2-0.1,0.5-0.2,0.7-0.3
		c0.5-0.2,1-0.4,1.5-0.6c0.7-0.3,1.4-0.5,2.2-0.7C112.5,146.5,112.2,145.5,112.2,144.2C112.2,144.3,112.2,144.3,112.2,144.2z
		 M100.4,135.2L100.4,135.2c0.1-0.1,0.3,0,0.6,0.1c0.1,0.1,0.3,0.2,0.5,0.3c0.2,0.1,0.4,0.2,0.6,0.4c0.2,0.1,0.5,0.3,0.8,0.5
		c0.3,0.2,0.5,0.3,0.8,0.5c0.3,0.2,0.6,0.4,0.8,0.7c0.3,0.2,0.6,0.4,0.9,0.6c0.6,0.4,1.2,0.8,1.9,1.2c0.6,0.3,1.2,0.7,1.7,0.9
		c0.5,0.3,0.9,0.5,1.2,0.6c0.3,0.1,0.5,0.2,0.5,0.2l0,0.1c0,0-0.2,0-0.5-0.1c-0.3-0.1-0.8-0.2-1.3-0.4c-0.3-0.1-0.6-0.2-0.9-0.3
		c-0.3-0.1-0.6-0.2-1-0.4c-0.7-0.3-1.3-0.6-2-0.9c-0.3-0.2-0.7-0.3-1-0.5c-0.3-0.2-0.7-0.4-1-0.5c-0.6-0.4-1.1-0.9-1.5-1.3
		c-0.4-0.5-0.7-0.9-0.8-1.2C100.4,135.4,100.4,135.2,100.4,135.2z M84.4,125.6c0,0,0.1,0.2,0.4,0.6c0.1,0.2,0.3,0.4,0.5,0.7
		c0.2,0.3,0.4,0.6,0.6,0.9c0.2,0.3,0.5,0.7,0.8,1c0.3,0.4,0.6,0.7,0.9,1.1c0.3,0.4,0.6,0.8,0.9,1.3c0.3,0.4,0.7,0.8,1,1.2
		c0.4,0.4,0.7,0.8,1.1,1.1c0.4,0.4,0.8,0.7,1.1,1c0.8,0.7,1.5,1.2,2.2,1.7c0.7,0.5,1.2,0.8,1.6,1.1c0.4,0.2,0.6,0.4,0.6,0.4
		l-0.1,0.1c0,0-0.2-0.1-0.7-0.3c-0.4-0.2-1-0.5-1.8-0.8c-0.4-0.2-0.7-0.4-1.1-0.6c-0.4-0.2-0.8-0.5-1.2-0.8
		c-0.4-0.3-0.8-0.6-1.3-0.9c-0.4-0.3-0.8-0.7-1.2-1c-0.4-0.3-0.8-0.7-1.2-1.1c-0.4-0.4-0.7-0.8-1.1-1.1c-0.6-0.8-1.1-1.7-1.5-2.5
		c-0.2-0.4-0.3-0.8-0.4-1.1c-0.1-0.4-0.2-0.7-0.2-1c-0.1-0.3-0.1-0.5-0.1-0.7c0-0.2,0-0.2,0-0.2L84.4,125.6z M70.6,116
		c0-0.3,0.1-0.6,0.1-0.8c0-0.2,0-0.3,0-0.3l0.2-0.1c0,0,0.1,0.3,0.3,0.8c0.1,0.2,0.2,0.5,0.3,0.9c0.1,0.3,0.2,0.7,0.4,1.1
		c0.2,0.4,0.3,0.8,0.5,1.3c0.2,0.4,0.4,0.9,0.5,1.4c0.2,0.5,0.4,1.1,0.5,1.6c0.2,0.6,0.4,1.1,0.6,1.6c0.5,1,1,2,1.5,2.9
		c0.5,0.9,1.1,1.7,1.7,2.4c0.5,0.7,1,1.2,1.3,1.6c0.3,0.4,0.5,0.6,0.5,0.6l-0.1,0.1c0,0-0.2-0.2-0.6-0.5c-0.4-0.3-0.9-0.7-1.5-1.3
		c-0.3-0.3-0.6-0.6-1-0.9c-0.3-0.3-0.6-0.7-1-1.1c-0.6-0.8-1.3-1.7-1.9-2.6c-0.3-0.4-0.6-0.9-0.9-1.4c-0.3-0.5-0.5-1-0.7-1.5
		c-0.4-1-0.6-2.1-0.8-3.1C70.6,117.6,70.6,116.7,70.6,116z M58.2,106.4c0.1-1,0.3-2,0.6-2.7c0.1-0.3,0.2-0.6,0.3-0.8
		c0.1-0.2,0.1-0.3,0.1-0.3l0.2-0.1c0,0,0,0.3,0.1,0.8c0,0.3,0.1,0.6,0.1,0.9c0,0.4,0.1,0.7,0.2,1.2c0.1,0.4,0.1,0.9,0.2,1.4
		c0.1,0.5,0.1,1,0.2,1.6c0.1,0.6,0.1,1.2,0.2,1.8c0.1,0.6,0.2,1.2,0.3,1.8c0.2,1.2,0.5,2.3,0.8,3.3c0.3,1,0.7,1.9,1.1,2.7
		c0.3,0.8,0.7,1.4,0.9,1.9c0.2,0.4,0.4,0.7,0.4,0.7l-0.2,0.2c0,0-0.2-0.2-0.5-0.6c-0.3-0.4-0.7-0.9-1.2-1.6
		c-0.2-0.3-0.5-0.7-0.7-1.1c-0.3-0.4-0.5-0.8-0.7-1.3c-0.5-0.9-0.9-2-1.3-3.1c-0.2-0.5-0.4-1.1-0.5-1.6c-0.2-0.5-0.3-1.1-0.4-1.7
		C58,108.6,58.1,107.4,58.2,106.4z M47.3,93c0.3-1,0.7-1.9,1-2.5c0.2-0.3,0.3-0.6,0.4-0.7c0.1-0.2,0.2-0.3,0.2-0.3l0.2-0.1
		c0,0,0,0.3,0,0.8c0,0.2,0,0.5,0,0.9c0,0.4,0,0.7,0,1.1c0,0.4,0,0.9,0,1.4c0,0.5,0,1,0,1.6c0,0.6-0.1,1.2-0.1,1.8c0,0.6,0,1.2,0,1.8
		c0,1.2,0.1,2.4,0.2,3.5c0.1,1.1,0.3,2.1,0.5,2.9c0.2,0.8,0.4,1.5,0.5,2c0.1,0.5,0.2,0.8,0.2,0.8l-0.2,0.2c0,0-0.1-0.2-0.4-0.6
		c-0.2-0.4-0.5-1-0.9-1.8c-0.2-0.4-0.3-0.8-0.5-1.2c-0.2-0.4-0.3-0.9-0.5-1.4c-0.3-1-0.5-2.1-0.7-3.2c-0.1-0.6-0.2-1.1-0.3-1.7
		c-0.1-0.6-0.1-1.1-0.1-1.7C46.8,95.2,47.1,94,47.3,93z M37,83.1c0-0.6,0-1.1,0.1-1.7c0.2-1.1,0.5-2.2,0.9-3.1
		c0.4-0.9,0.9-1.7,1.3-2.3c0.2-0.3,0.4-0.5,0.5-0.7c0.1-0.1,0.2-0.2,0.2-0.2l0.2,0c0,0,0,0.3-0.1,0.8c0,0.2-0.1,0.5-0.1,0.9
		c-0.1,0.3-0.1,0.7-0.1,1.1c0,0.4-0.1,0.9-0.1,1.3c-0.1,0.5-0.1,1-0.2,1.5c-0.1,0.5-0.2,1.1-0.4,1.7C39,83,39,83.5,38.9,84.1
		c-0.1,1.2-0.2,2.3-0.2,3.4c0,1.1,0,2.1,0.1,2.9c0.1,0.9,0.1,1.6,0.2,2.1c0,0.5,0.1,0.8,0.1,0.8l-0.2,0.1c0,0-0.1-0.3-0.3-0.7
		c-0.2-0.4-0.4-1.1-0.6-1.9c-0.1-0.4-0.2-0.8-0.3-1.3c-0.1-0.5-0.2-1-0.3-1.5c-0.1-1-0.2-2.2-0.3-3.3C37,84.2,37,83.7,37,83.1z
		 M29.1,68.5c0-0.6,0.1-1.1,0.1-1.7c0-0.6,0.1-1.1,0.3-1.6c0.3-1.1,0.7-2.1,1.1-2.9c0.5-0.9,0.9-1.6,1.3-2.1
		c0.2-0.2,0.4-0.4,0.5-0.6c0.1-0.1,0.2-0.2,0.2-0.2l0.2,0c0,0,0,0.3-0.1,0.7c0,0.2-0.1,0.5-0.2,0.8c-0.1,0.3-0.1,0.7-0.2,1.1
		c-0.1,0.4-0.2,0.8-0.2,1.3c-0.1,0.5-0.2,0.9-0.3,1.5c-0.1,0.5-0.3,1.1-0.5,1.6c-0.2,0.6-0.3,1.1-0.4,1.7c-0.2,1.1-0.4,2.2-0.6,3.3
		c-0.1,1.1-0.2,2-0.3,2.9c0,0.8-0.1,1.6-0.1,2c0,0.5,0,0.8,0,0.8l-0.2,0.1c0,0-0.1-0.3-0.2-0.7c-0.1-0.5-0.2-1.1-0.3-1.9
		c-0.1-0.4-0.1-0.8-0.2-1.3c-0.1-0.5-0.1-1-0.1-1.5C29,70.8,29,69.7,29.1,68.5z M22.7,54.5c0.1-1,0.2-2.1,0.3-3.2
		c0.1-0.5,0.1-1.1,0.2-1.6c0.1-0.5,0.2-1.1,0.3-1.6c0.3-1,0.7-2,1.2-2.7c0.4-0.8,0.9-1.4,1.3-1.9c0.2-0.2,0.3-0.4,0.5-0.5
		c0.1-0.1,0.2-0.2,0.2-0.2l0.2,0c0,0-0.1,0.3-0.1,0.7c0,0.2-0.1,0.5-0.2,0.8c-0.1,0.3-0.1,0.7-0.2,1.1c-0.1,0.4-0.2,0.8-0.3,1.2
		c-0.1,0.4-0.2,0.9-0.4,1.4c-0.1,0.5-0.3,1-0.5,1.5c-0.2,0.5-0.3,1.1-0.5,1.6c-0.3,1.1-0.5,2.2-0.7,3.2c-0.2,1-0.3,2-0.4,2.8
		c-0.1,0.8-0.2,1.5-0.2,2c-0.1,0.5-0.1,0.8-0.1,0.8L23,60c0,0,0-0.3-0.1-0.7c-0.1-0.5-0.1-1.1-0.1-2c0-0.4,0-0.8,0-1.3
		C22.7,55.5,22.7,55,22.7,54.5z M18.1,39.2c0-0.4,0-0.8,0-1.3c0-0.5,0.1-1,0.1-1.5c0.1-1,0.2-2.1,0.4-3.2c0.1-0.5,0.2-1.1,0.2-1.6
		c0.1-0.5,0.2-1,0.3-1.5c0.3-1,0.6-1.9,1-2.6c0.4-0.7,0.7-1.3,1-1.7c0.1-0.2,0.3-0.3,0.4-0.4c0.1-0.1,0.1-0.1,0.1-0.1l0.1,0.1
		c0,0,0,0.3-0.1,0.7c0,0.2-0.1,0.5-0.1,0.8c-0.1,0.3-0.1,0.7-0.2,1c-0.1,0.4-0.1,0.8-0.2,1.2c-0.1,0.4-0.2,0.9-0.3,1.4
		c-0.1,0.5-0.3,1-0.4,1.5c-0.2,0.5-0.3,1-0.4,1.5c-0.3,1-0.5,2.1-0.7,3.1c-0.2,1-0.4,1.9-0.5,2.7c-0.1,0.8-0.3,1.5-0.3,2
		c-0.1,0.5-0.1,0.7-0.1,0.7l-0.2,0c0,0,0-0.3,0-0.7C18.1,40.7,18.1,40,18.1,39.2z M12.7,15.9c0.1-1.3,0.3-2,0.3-2s0.2,0.7,0.5,2
		c0.3,1.3,0.7,3.1,0.9,5.3c0.5,4.5,0.6,11.6,0.8,14.2c-0.2-1.3-0.9-3.6-1.4-6.2c-0.6-2.6-1-5.5-1.1-7.8C12.4,19,12.5,17.2,12.7,15.9
		z M14.2,42.7c0,0-0.1-0.2-0.4-0.7c-0.2-0.4-0.6-1-1-1.8c-0.4-0.7-0.9-1.6-1.4-2.5c-0.5-0.9-1.1-1.9-1.6-2.8c-0.3-0.5-0.6-1-0.9-1.4
		c-0.3-0.5-0.6-0.9-0.8-1.4c-0.2-0.5-0.5-0.9-0.6-1.3C7.3,30.4,7.1,30,7,29.6c-0.2-0.4-0.3-0.7-0.4-1c-0.1-0.3-0.2-0.6-0.3-0.8
		C6.1,27.3,6,27.1,6,27.1L6.1,27c0,0,0.1,0,0.2,0.1c0.1,0.1,0.3,0.2,0.4,0.4c0.4,0.3,0.9,0.9,1.4,1.5c0.5,0.7,1.1,1.5,1.6,2.4
		c0.2,0.5,0.5,1,0.7,1.5c0.2,0.5,0.5,1,0.7,1.5c0.5,1,0.9,2,1.3,3c0.2,0.5,0.4,0.9,0.6,1.4c0.2,0.4,0.3,0.9,0.5,1.2
		c0.3,0.8,0.5,1.4,0.7,1.9c0.2,0.5,0.2,0.7,0.2,0.7L14.2,42.7z M18.5,61.4c0,0-0.2-0.2-0.5-0.6c-0.3-0.4-0.7-1-1.3-1.6
		c-0.6-0.7-1.2-1.4-1.9-2.3c-0.7-0.8-1.4-1.7-2.2-2.6c-0.4-0.4-0.8-0.9-1.2-1.3c-0.4-0.4-0.8-0.8-1.2-1.2c-0.4-0.4-0.7-0.8-1-1.2
		c-0.3-0.4-0.6-0.8-0.8-1.1c-0.3-0.3-0.5-0.7-0.7-1c-0.2-0.3-0.4-0.6-0.5-0.8c-0.3-0.4-0.4-0.7-0.4-0.7L7,46.8c0,0,0.1,0,0.2,0.1
		c0.1,0.1,0.4,0.2,0.6,0.3C8.4,47.5,9,48,9.8,48.6c0.7,0.6,1.5,1.3,2.3,2.2c0.4,0.4,0.7,0.9,1,1.4c0.3,0.5,0.7,0.9,1,1.4
		c0.7,0.9,1.3,1.9,1.9,2.8c0.3,0.5,0.6,0.9,0.8,1.3c0.2,0.4,0.5,0.8,0.7,1.2c0.4,0.7,0.7,1.3,0.9,1.8c0.2,0.4,0.3,0.7,0.3,0.7
		L18.5,61.4z M25.1,79.4c0,0-0.2-0.2-0.6-0.5c-0.4-0.3-0.9-0.8-1.6-1.4c-0.7-0.6-1.5-1.2-2.3-2c-0.9-0.7-1.8-1.5-2.8-2.2
		c-0.5-0.4-1-0.7-1.5-1.1c-0.5-0.4-1-0.7-1.4-1.1c-0.4-0.4-0.9-0.7-1.2-1.1c-0.4-0.4-0.8-0.7-1.1-1c-0.3-0.3-0.6-0.6-0.9-0.9
		c-0.3-0.3-0.5-0.5-0.7-0.7c-0.4-0.4-0.6-0.6-0.6-0.6l0.2-0.1c0,0,0.1,0,0.3,0.1c0.2,0,0.4,0.1,0.7,0.2c0.6,0.2,1.4,0.6,2.4,1
		c0.9,0.5,1.9,1.1,2.8,1.8c0.4,0.4,0.9,0.8,1.3,1.2c0.4,0.4,0.8,0.8,1.3,1.3c0.9,0.8,1.7,1.7,2.4,2.5c0.3,0.4,0.7,0.8,1,1.2
		c0.3,0.4,0.6,0.7,0.9,1.1c0.5,0.7,1,1.2,1.2,1.6c0.3,0.4,0.4,0.6,0.4,0.6L25.1,79.4z M34.3,96.4c0,0-0.3-0.2-0.7-0.4
		c-0.4-0.3-1.1-0.7-1.8-1.1c-0.8-0.5-1.7-1-2.7-1.6c-1-0.6-2.1-1.2-3.2-1.8c-0.6-0.3-1.2-0.6-1.7-0.8c-0.6-0.3-1.2-0.5-1.7-0.8
		c-0.5-0.3-1-0.6-1.5-0.9c-0.5-0.3-0.9-0.6-1.3-0.8c-0.4-0.2-0.7-0.5-1.1-0.7c-0.3-0.2-0.6-0.4-0.8-0.6c-0.4-0.3-0.7-0.5-0.7-0.5
		l0.2-0.2c0,0,0.1,0,0.3,0c0.2,0,0.5,0,0.8,0.1c0.7,0.1,1.6,0.3,2.7,0.6c1,0.3,2.2,0.8,3.3,1.3c0.5,0.3,1,0.6,1.5,1
		c0.5,0.4,1,0.7,1.5,1.1c1,0.7,2,1.4,2.8,2.1c0.4,0.4,0.9,0.7,1.2,1c0.4,0.3,0.7,0.6,1.1,0.9c0.6,0.6,1.2,1.1,1.5,1.4
		c0.3,0.4,0.5,0.6,0.5,0.6L34.3,96.4z M46.2,111.6c0,0-0.3-0.1-0.8-0.3c-0.5-0.2-1.2-0.5-2-0.8c-0.8-0.3-1.9-0.7-3-1.1
		c-1.1-0.4-2.3-0.8-3.5-1.2c-0.6-0.2-1.3-0.4-1.9-0.5c-0.6-0.2-1.3-0.3-1.8-0.5c-0.6-0.2-1.1-0.4-1.7-0.6c-0.5-0.2-1-0.4-1.5-0.6
		c-0.5-0.2-0.9-0.4-1.2-0.5c-0.4-0.2-0.7-0.3-0.9-0.4c-0.5-0.3-0.8-0.4-0.8-0.4l0.1-0.2c0,0,0.1,0,0.3,0c0.2,0,0.5,0,0.9,0
		c0.8,0,1.7,0,2.9,0.2c1.1,0.1,2.4,0.4,3.6,0.8c0.6,0.2,1.2,0.4,1.7,0.7c0.5,0.3,1.1,0.5,1.7,0.8c1.1,0.5,2.2,1.1,3.2,1.6
		c0.5,0.3,1,0.5,1.4,0.8c0.4,0.3,0.8,0.5,1.2,0.7c0.7,0.5,1.3,0.8,1.7,1.1c0.4,0.3,0.6,0.4,0.6,0.4L46.2,111.6z M60.7,124.3
		c0,0-0.1,0-0.2,0c-0.1,0-0.3-0.1-0.6-0.1c-0.5-0.1-1.2-0.3-2.1-0.5c-0.9-0.2-1.9-0.4-3.1-0.6c-1.1-0.2-2.4-0.4-3.6-0.6
		c-0.6-0.1-1.3-0.2-2-0.2c-0.6-0.1-1.3-0.1-1.9-0.2c-0.6-0.1-1.2-0.2-1.7-0.3c-0.6-0.1-1.1-0.2-1.6-0.3c-0.5-0.1-0.9-0.2-1.3-0.3
		c-0.4-0.1-0.7-0.2-1-0.3c-0.6-0.1-0.9-0.2-0.9-0.2l0.1-0.2c0,0,0.1,0,0.3-0.1c0.2-0.1,0.5-0.1,0.9-0.2c0.7-0.2,1.7-0.3,2.9-0.3
		c1.1,0,2.4,0,3.6,0.1c0.6,0.1,1.2,0.2,1.8,0.4c0.6,0.2,1.2,0.3,1.8,0.5c1.2,0.3,2.3,0.7,3.4,1c0.5,0.2,1,0.3,1.5,0.5
		c0.5,0.2,0.9,0.4,1.3,0.5c0.8,0.3,1.4,0.6,1.9,0.9c0.4,0.2,0.7,0.3,0.7,0.3L60.7,124.3z M77.2,134.3c0,0-0.3,0-0.8-0.1
		c-0.5-0.1-1.2-0.2-2-0.3c-0.8-0.1-1.8-0.1-2.9-0.3c-1.1-0.1-2.3-0.2-3.6-0.2c-0.6,0-1.3,0-1.9,0c-0.6,0-1.2,0-1.8,0
		c-0.6,0-1.2,0-1.7-0.1c-0.5,0-1.1,0-1.5-0.1c-0.5,0-0.9-0.1-1.3-0.1c-0.4,0-0.7-0.1-1-0.1c-0.6-0.1-0.9-0.1-0.9-0.1l0-0.2
		c0,0,0.1,0,0.3-0.1c0.2-0.1,0.4-0.2,0.8-0.3c0.7-0.2,1.6-0.4,2.6-0.6c1.1-0.2,2.2-0.3,3.4-0.3c0.6,0,1.2,0.1,1.8,0.2
		c0.6,0.1,1.2,0.2,1.8,0.3c1.2,0.2,2.4,0.4,3.4,0.6c0.5,0.1,1,0.2,1.5,0.4c0.5,0.1,0.9,0.2,1.3,0.3c0.8,0.2,1.5,0.4,1.9,0.6
		c0.5,0.2,0.7,0.2,0.7,0.2L77.2,134.3z M95.3,140.9c0,0-0.3,0-0.8,0c-0.5,0-1.2,0-2,0c-0.8,0-1.8,0.1-2.9,0.1
		c-0.5,0-1.1,0.1-1.7,0.1c-0.6,0-1.1,0.1-1.7,0.1c-0.6,0.1-1.2,0.1-1.8,0.2c-0.6,0.1-1.2,0.1-1.7,0.2c-0.6,0-1.1,0.1-1.6,0.1
		c-0.5,0-1,0-1.5,0c-0.5,0-0.9,0-1.3,0c-0.4,0-0.7,0-1,0c-0.6,0-0.9,0-0.9,0l0-0.2c0,0,0.1,0,0.2-0.1c0.1-0.1,0.4-0.2,0.7-0.3
		c0.6-0.2,1.4-0.5,2.3-0.7c1-0.2,2-0.4,3.2-0.5c0.6,0,1.1,0,1.7,0c0.6,0,1.2,0,1.7,0c0.6,0,1.2,0,1.7,0.1c0.6,0,1.1,0,1.6,0.1
		c0.5,0,1,0.1,1.5,0.1c0.5,0,0.9,0.1,1.3,0.1c0.8,0.1,1.5,0.2,2,0.2c0.5,0.1,0.8,0.1,0.8,0.1L95.3,140.9z M102.1,144.8
		c-0.3,0.1-0.7,0.1-1,0.2c-0.3,0-0.6,0.1-0.9,0.1c-0.3,0-0.6,0-0.8,0.1c-0.2,0-0.5,0-0.6,0c-0.3,0-0.6,0-0.6,0l0-0.1
		c0,0,0.2-0.2,0.5-0.4c0.3-0.2,0.8-0.5,1.3-0.7c0.6-0.2,1.2-0.5,1.9-0.6c0.4-0.1,0.7-0.1,1.1-0.1c0.4,0,0.8-0.1,1.2-0.1
		c0.8-0.1,1.5-0.1,2.2-0.1c0.4,0,0.7,0,1,0c0.3,0,0.6,0,0.9,0c0.6,0,1,0,1.4,0.1c0.3,0,0.5,0,0.5,0v0.1c0,0-0.2,0-0.5,0.1
		c-0.3,0-0.8,0.1-1.4,0.2c-0.6,0.1-1.2,0.2-1.9,0.3c-0.7,0.1-1.4,0.2-2.2,0.4c-0.4,0.1-0.7,0.2-1.1,0.3
		C102.8,144.7,102.4,144.8,102.1,144.8z"/>
</g>
</svg>
