<?xml version="1.0" encoding="utf-8"?>
<!-- Generator: Adobe Illustrator 22.0.0, SVG Export Plug-In . SVG Version: 6.00 Build 0)  -->
<svg version="1.1" id="Layer_1" xmlns="http://www.w3.org/2000/svg" xmlns:xlink="http://www.w3.org/1999/xlink" x="0px" y="0px"
	 viewBox="0 0 1864.1 1980" style="enable-background:new 0 0 1864.1 1980;" xml:space="preserve">
<style type="text/css">
	.st0{fill:#FFFFFF;stroke:#000000;stroke-miterlimit:10;}
	.st1{fill:none;stroke:#000000;stroke-miterlimit:10;}
	.st2{fill:none;}
	.st3{font-family:'Gotu-Regular';}
	.st4{font-size:85px;}
</style>
<g id="barra">
	<g>
		<g>
			<path class="st0" d="M1545.5,386V238c0-4.4,3.6-8,8-8l0,0c4.4,0,8,3.6,8,8v148c0,4.4-3.6,8-8,8l0,0
				C1549.1,394,1545.5,390.4,1545.5,386z"/>
			<path class="st0" d="M1545.5,612V464c0-4.4,3.6-8,8-8l0,0c4.4,0,8,3.6,8,8v148c0,4.4-3.6,8-8,8l0,0
				C1549.1,620,1545.5,616.4,1545.5,612z"/>
			<path class="st0" d="M1545.5,838V690c0-4.4,3.6-8,8-8l0,0c4.4,0,8,3.6,8,8v148c0,4.4-3.6,8-8,8l0,0
				C1549.1,846,1545.5,842.4,1545.5,838z"/>
			<path class="st0" d="M1545.5,1064V916c0-4.4,3.6-8,8-8l0,0c4.4,0,8,3.6,8,8v148c0,4.4-3.6,8-8,8l0,0
				C1549.1,1072,1545.5,1068.4,1545.5,1064z"/>
			<path class="st0" d="M1545.5,1290v-148c0-4.4,3.6-8,8-8l0,0c4.4,0,8,3.6,8,8v148c0,4.4-3.6,8-8,8l0,0
				C1549.1,1298,1545.5,1294.4,1545.5,1290z"/>
			<path class="st0" d="M1545.5,1516v-148c0-4.4,3.6-8,8-8l0,0c4.4,0,8,3.6,8,8v148c0,4.4-3.6,8-8,8l0,0
				C1549.1,1524,1545.5,1520.4,1545.5,1516z"/>
			<path class="st0" d="M1545.5,1742v-148c0-4.4,3.6-8,8-8l0,0c4.4,0,8,3.6,8,8v148c0,4.4-3.6,8-8,8l0,0
				C1549.1,1750,1545.5,1746.4,1545.5,1742z"/>
		</g>
		<path class="st1" d="M1823,1788h-214c-6.6,0-12-5.4-12-12V204c0-6.6,5.4-12,12-12h214c6.6,0,12,5.4,12,12v1572
			C1835,1782.6,1829.6,1788,1823,1788z"/>
	</g>
</g>
<g id="barra7">
	<rect x="1607" y="1646" class="st2" width="212" height="94"/>
	<text transform="matrix(1 0 0 1 1660.3857 1711.6191)" class="st3 st4">B7</text>
</g>
<g id="barra6">
	<rect x="1607" y="1415" class="st2" width="212" height="94"/>
	<text transform="matrix(1 0 0 1 1657.0283 1480.6191)" class="st3 st4">B6</text>
</g>
<g id="barra5">
	<rect x="1607" y="1184" class="st2" width="212" height="94"/>
	<text transform="matrix(1 0 0 1 1657.4961 1249.6191)" class="st3 st4">B5</text>
</g>
<g id="barra4">
	<rect x="1607" y="953" class="st2" width="212" height="94"/>
	<text transform="matrix(1 0 0 1 1656.9854 1018.6191)" class="st3 st4">B4</text>
</g>
<g id="barra3">
	<rect x="1607" y="722" class="st2" width="212" height="94"/>
	<text transform="matrix(1 0 0 1 1656.4756 787.6191)" class="st3 st4">B3</text>
</g>
<g id="barra2">
	<rect x="1607" y="491" class="st2" width="212" height="94"/>
	<text transform="matrix(1 0 0 1 1658.1328 556.6191)" class="st3 st4">B2</text>
</g>
<g id="barra1">
	<rect x="1607" y="260" class="st2" width="212" height="94"/>
	<text transform="matrix(1 0 0 1 1664.125 325.6191)" class="st3 st4">B1</text>
</g>
<g id="Layer_15">
	<g>
		<g>
			<path class="st0" d="M977.3,1562.3h-148c-4.4,0-8-3.6-8-8l0,0c0-4.4,3.6-8,8-8h148c4.4,0,8,3.6,8,8l0,0
				C985.3,1558.7,981.7,1562.3,977.3,1562.3z"/>
			<path class="st0" d="M1221.3,1562.3h-148c-4.4,0-8-3.6-8-8l0,0c0-4.4,3.6-8,8-8h148c4.4,0,8,3.6,8,8l0,0
				C1229.3,1558.7,1225.7,1562.3,1221.3,1562.3z"/>
			<path class="st0" d="M977.3,1826.3h-148c-4.4,0-8-3.6-8-8l0,0c0-4.4,3.6-8,8-8h148c4.4,0,8,3.6,8,8l0,0
				C985.3,1822.7,981.7,1826.3,977.3,1826.3z"/>
			<path class="st0" d="M1221.3,1826.3h-148c-4.4,0-8-3.6-8-8l0,0c0-4.4,3.6-8,8-8h148c4.4,0,8,3.6,8,8l0,0
				C1229.3,1822.7,1225.7,1826.3,1221.3,1826.3z"/>
		</g>
		<path class="st1" d="M1245.3,1797.8h-440c-6.6,0-12-5.4-12-12v-199c0-6.6,5.4-12,12-12h440c6.6,0,12,5.4,12,12v199
			C1257.3,1792.4,1251.8,1797.8,1245.3,1797.8z"/>
		<rect x="806" y="1633.3" class="st2" width="440" height="106"/>
		<text transform="matrix(1 0 0 1 979.8457 1698.9525)" class="st3 st4">15</text>
	</g>
</g>
<g id="Layer_14">
	<g>
		<g>
			<path class="st0" d="M977.3,1204.3h-148c-4.4,0-8-3.6-8-8l0,0c0-4.4,3.6-8,8-8h148c4.4,0,8,3.6,8,8l0,0
				C985.3,1200.7,981.7,1204.3,977.3,1204.3z"/>
			<path class="st0" d="M1221.3,1204.3h-148c-4.4,0-8-3.6-8-8l0,0c0-4.4,3.6-8,8-8h148c4.4,0,8,3.6,8,8l0,0
				C1229.3,1200.7,1225.7,1204.3,1221.3,1204.3z"/>
			<path class="st0" d="M977.3,1468.3h-148c-4.4,0-8-3.6-8-8l0,0c0-4.4,3.6-8,8-8h148c4.4,0,8,3.6,8,8l0,0
				C985.3,1464.7,981.7,1468.3,977.3,1468.3z"/>
			<path class="st0" d="M1221.3,1468.3h-148c-4.4,0-8-3.6-8-8l0,0c0-4.4,3.6-8,8-8h148c4.4,0,8,3.6,8,8l0,0
				C1229.3,1464.7,1225.7,1468.3,1221.3,1468.3z"/>
		</g>
		<path class="st1" d="M1245.3,1439.8h-440c-6.6,0-12-5.4-12-12v-199c0-6.6,5.4-12,12-12h440c6.6,0,12,5.4,12,12v199
			C1257.3,1434.4,1251.8,1439.8,1245.3,1439.8z"/>
		<rect x="806" y="1275.3" class="st2" width="440" height="106"/>
		<text transform="matrix(1 0 0 1 979.335 1340.9525)" class="st3 st4">14</text>
	</g>
</g>
<g id="Layer_13">
	<g>
		<g>
			<path class="st0" d="M977.3,846.3h-148c-4.4,0-8-3.6-8-8l0,0c0-4.4,3.6-8,8-8h148c4.4,0,8,3.6,8,8l0,0
				C985.3,842.7,981.7,846.3,977.3,846.3z"/>
			<path class="st0" d="M1221.3,846.3h-148c-4.4,0-8-3.6-8-8l0,0c0-4.4,3.6-8,8-8h148c4.4,0,8,3.6,8,8l0,0
				C1229.3,842.7,1225.7,846.3,1221.3,846.3z"/>
			<path class="st0" d="M977.3,1110.3h-148c-4.4,0-8-3.6-8-8l0,0c0-4.4,3.6-8,8-8h148c4.4,0,8,3.6,8,8l0,0
				C985.3,1106.7,981.7,1110.3,977.3,1110.3z"/>
			<path class="st0" d="M1221.3,1110.3h-148c-4.4,0-8-3.6-8-8l0,0c0-4.4,3.6-8,8-8h148c4.4,0,8,3.6,8,8l0,0
				C1229.3,1106.7,1225.7,1110.3,1221.3,1110.3z"/>
		</g>
		<path class="st1" d="M1245.3,1081.8h-440c-6.6,0-12-5.4-12-12v-199c0-6.6,5.4-12,12-12h440c6.6,0,12,5.4,12,12v199
			C1257.3,1076.4,1251.8,1081.8,1245.3,1081.8z"/>
		<rect x="806" y="917.3" class="st2" width="440" height="106"/>
		<text transform="matrix(1 0 0 1 978.8252 982.9525)" class="st3 st4">13</text>
	</g>
</g>
<g id="Layer_12">
	<g>
		<g>
			<path class="st0" d="M977.3,488.3h-148c-4.4,0-8-3.6-8-8l0,0c0-4.4,3.6-8,8-8h148c4.4,0,8,3.6,8,8l0,0
				C985.3,484.7,981.7,488.3,977.3,488.3z"/>
			<path class="st0" d="M1221.3,488.3h-148c-4.4,0-8-3.6-8-8l0,0c0-4.4,3.6-8,8-8h148c4.4,0,8,3.6,8,8l0,0
				C1229.3,484.7,1225.7,488.3,1221.3,488.3z"/>
			<path class="st0" d="M977.3,752.3h-148c-4.4,0-8-3.6-8-8l0,0c0-4.4,3.6-8,8-8h148c4.4,0,8,3.6,8,8l0,0
				C985.3,748.7,981.7,752.3,977.3,752.3z"/>
			<path class="st0" d="M1221.3,752.3h-148c-4.4,0-8-3.6-8-8l0,0c0-4.4,3.6-8,8-8h148c4.4,0,8,3.6,8,8l0,0
				C1229.3,748.7,1225.7,752.3,1221.3,752.3z"/>
		</g>
		<path class="st1" d="M1245.3,723.8h-440c-6.6,0-12-5.4-12-12v-199c0-6.6,5.4-12,12-12h440c6.6,0,12,5.4,12,12v199
			C1257.3,718.4,1251.8,723.8,1245.3,723.8z"/>
		<rect x="806" y="559.3" class="st2" width="440" height="106"/>
		<text transform="matrix(1 0 0 1 980.4834 624.9525)" class="st3 st4">12</text>
	</g>
</g>
<g id="Layer_11">
	<g>
		<g>
			<path class="st0" d="M977.3,130.3h-148c-4.4,0-8-3.6-8-8l0,0c0-4.4,3.6-8,8-8h148c4.4,0,8,3.6,8,8l0,0
				C985.3,126.7,981.7,130.3,977.3,130.3z"/>
			<path class="st0" d="M1221.3,130.3h-148c-4.4,0-8-3.6-8-8l0,0c0-4.4,3.6-8,8-8h148c4.4,0,8,3.6,8,8l0,0
				C1229.3,126.7,1225.7,130.3,1221.3,130.3z"/>
			<path class="st0" d="M977.3,394.3h-148c-4.4,0-8-3.6-8-8l0,0c0-4.4,3.6-8,8-8h148c4.4,0,8,3.6,8,8l0,0
				C985.3,390.7,981.7,394.3,977.3,394.3z"/>
			<path class="st0" d="M1221.3,394.3h-148c-4.4,0-8-3.6-8-8l0,0c0-4.4,3.6-8,8-8h148c4.4,0,8,3.6,8,8l0,0
				C1229.3,390.7,1225.7,394.3,1221.3,394.3z"/>
		</g>
		<path class="st1" d="M1245.3,365.8h-440c-6.6,0-12-5.4-12-12v-199c0-6.6,5.4-12,12-12h440c6.6,0,12,5.4,12,12v199
			C1257.3,360.4,1251.8,365.8,1245.3,365.8z"/>
		<rect x="806" y="201.3" class="st2" width="440" height="106"/>
		<text transform="matrix(1 0 0 1 986.4756 266.9525)" class="st3 st4">11</text>
	</g>
</g>
<g id="mesa10">
	<g>
		<path class="st0" d="M483.3,1562.5h-148c-4.4,0-8-3.6-8-8l0,0c0-4.4,3.6-8,8-8h148c4.4,0,8,3.6,8,8l0,0
			C491.3,1558.9,487.6,1562.5,483.3,1562.5z"/>
		<path class="st0" d="M483.5,1826.5h-148c-4.4,0-8-3.6-8-8l0,0c0-4.4,3.6-8,8-8h148c4.4,0,8,3.6,8,8l0,0
			C491.5,1822.9,487.9,1826.5,483.5,1826.5z"/>
		<path class="st0" d="M508.1,1798h-199c-6.6,0-12-5.4-12-12v-199c0-6.6,5.4-12,12-12h199c6.6,0,12,5.4,12,12v199
			C520.1,1792.6,514.7,1798,508.1,1798z"/>
		<rect x="311.6" y="1642.5" class="st2" width="194" height="88"/>
		<text transform="matrix(1 0 0 1 360.6431 1708.1191)" class="st3 st4">10</text>
	</g>
</g>
<g id="mesa9">
	<g>
		<path class="st0" d="M239.3,1562.5h-148c-4.4,0-8-3.6-8-8l0,0c0-4.4,3.6-8,8-8h148c4.4,0,8,3.6,8,8l0,0
			C247.3,1558.9,243.7,1562.5,239.3,1562.5z"/>
		<path class="st0" d="M239.5,1826.5h-148c-4.4,0-8-3.6-8-8l0,0c0-4.4,3.6-8,8-8h148c4.4,0,8,3.6,8,8l0,0
			C247.5,1822.9,243.9,1826.5,239.5,1826.5z"/>
		<path class="st0" d="M264.1,1798h-199c-6.6,0-12-5.4-12-12v-199c0-6.6,5.4-12,12-12h199c6.6,0,12,5.4,12,12v199
			C276.1,1792.6,270.7,1798,264.1,1798z"/>
		<rect x="67.6" y="1642.5" class="st2" width="194" height="88"/>
		<text transform="matrix(1 0 0 1 138.5728 1708.1191)" class="st3 st4">9</text>
	</g>
</g>
<g id="mesa8">
	<g>
		<path class="st0" d="M483.3,1204.5h-148c-4.4,0-8-3.6-8-8l0,0c0-4.4,3.6-8,8-8h148c4.4,0,8,3.6,8,8l0,0
			C491.3,1200.9,487.6,1204.5,483.3,1204.5z"/>
		<path class="st0" d="M483.5,1468.5h-148c-4.4,0-8-3.6-8-8l0,0c0-4.4,3.6-8,8-8h148c4.4,0,8,3.6,8,8l0,0
			C491.5,1464.9,487.9,1468.5,483.5,1468.5z"/>
		<path class="st0" d="M508.1,1440h-199c-6.6,0-12-5.4-12-12v-199c0-6.6,5.4-12,12-12h199c6.6,0,12,5.4,12,12v199
			C520.1,1434.6,514.7,1440,508.1,1440z"/>
		<rect x="311.6" y="1284.5" class="st2" width="194" height="88"/>
		<text transform="matrix(1 0 0 1 381.8506 1350.1191)" class="st3 st4">8</text>
	</g>
</g>
<g id="mesa7">
	<g>
		<path class="st0" d="M239.3,1204.5h-148c-4.4,0-8-3.6-8-8l0,0c0-4.4,3.6-8,8-8h148c4.4,0,8,3.6,8,8l0,0
			C247.3,1200.9,243.7,1204.5,239.3,1204.5z"/>
		<path class="st0" d="M239.5,1468.5h-148c-4.4,0-8-3.6-8-8l0,0c0-4.4,3.6-8,8-8h148c4.4,0,8,3.6,8,8l0,0
			C247.5,1464.9,243.9,1468.5,239.5,1468.5z"/>
		<path class="st0" d="M264.1,1440h-199c-6.6,0-12-5.4-12-12v-199c0-6.6,5.4-12,12-12h199c6.6,0,12,5.4,12,12v199
			C276.1,1434.6,270.7,1440,264.1,1440z"/>
		<rect x="67.6" y="1284.5" class="st2" width="194" height="88"/>
		<text transform="matrix(1 0 0 1 141.1226 1350.1191)" class="st3 st4">7</text>
	</g>
</g>
<g id="mesa6">
	<g>
		<path class="st0" d="M483.3,846.5h-148c-4.4,0-8-3.6-8-8l0,0c0-4.4,3.6-8,8-8h148c4.4,0,8,3.6,8,8l0,0
			C491.3,842.9,487.6,846.5,483.3,846.5z"/>
		<path class="st0" d="M483.5,1110.5h-148c-4.4,0-8-3.6-8-8l0,0c0-4.4,3.6-8,8-8h148c4.4,0,8,3.6,8,8l0,0
			C491.5,1106.9,487.9,1110.5,483.5,1110.5z"/>
		<path class="st0" d="M508.1,1082h-199c-6.6,0-12-5.4-12-12V871c0-6.6,5.4-12,12-12h199c6.6,0,12,5.4,12,12v199
			C520.1,1076.6,514.7,1082,508.1,1082z"/>
		<rect x="311.6" y="926.5" class="st2" width="194" height="88"/>
		<text transform="matrix(1 0 0 1 381.7656 992.1191)" class="st3 st4">6</text>
	</g>
</g>
<g id="mesa5">
	<g>
		<path class="st0" d="M239.3,846.5h-148c-4.4,0-8-3.6-8-8l0,0c0-4.4,3.6-8,8-8h148c4.4,0,8,3.6,8,8l0,0
			C247.3,842.9,243.7,846.5,239.3,846.5z"/>
		<path class="st0" d="M239.5,1110.5h-148c-4.4,0-8-3.6-8-8l0,0c0-4.4,3.6-8,8-8h148c4.4,0,8,3.6,8,8l0,0
			C247.5,1106.9,243.9,1110.5,239.5,1110.5z"/>
		<path class="st0" d="M264.1,1082h-199c-6.6,0-12-5.4-12-12V871c0-6.6,5.4-12,12-12h199c6.6,0,12,5.4,12,12v199
			C276.1,1076.6,270.7,1082,264.1,1082z"/>
		<rect x="67.6" y="926.5" class="st2" width="194" height="88"/>
		<text transform="matrix(1 0 0 1 138.2329 992.1191)" class="st3 st4">5</text>
	</g>
</g>
<g id="mesa4">
	<g>
		<path class="st0" d="M483.3,488.5h-148c-4.4,0-8-3.6-8-8l0,0c0-4.4,3.6-8,8-8h148c4.4,0,8,3.6,8,8l0,0
			C491.3,484.9,487.6,488.5,483.3,488.5z"/>
		<path class="st0" d="M483.5,752.5h-148c-4.4,0-8-3.6-8-8l0,0c0-4.4,3.6-8,8-8h148c4.4,0,8,3.6,8,8l0,0
			C491.5,748.9,487.9,752.5,483.5,752.5z"/>
		<path class="st0" d="M508.1,724h-199c-6.6,0-12-5.4-12-12V513c0-6.6,5.4-12,12-12h199c6.6,0,12,5.4,12,12v199
			C520.1,718.6,514.7,724,508.1,724z"/>
		<rect x="311.6" y="568.5" class="st2" width="194" height="88"/>
		<text transform="matrix(1 0 0 1 381.7227 634.1191)" class="st3 st4">4</text>
	</g>
</g>
<g id="mesa3">
	<g>
		<path class="st0" d="M239.3,488.5h-148c-4.4,0-8-3.6-8-8l0,0c0-4.4,3.6-8,8-8h148c4.4,0,8,3.6,8,8l0,0
			C247.3,484.9,243.7,488.5,239.3,488.5z"/>
		<path class="st0" d="M239.5,752.5h-148c-4.4,0-8-3.6-8-8l0,0c0-4.4,3.6-8,8-8h148c4.4,0,8,3.6,8,8l0,0
			C247.5,748.9,243.9,752.5,239.5,752.5z"/>
		<path class="st0" d="M264.1,724h-199c-6.6,0-12-5.4-12-12V513c0-6.6,5.4-12,12-12h199c6.6,0,12,5.4,12,12v199
			C276.1,718.6,270.7,724,264.1,724z"/>
		<rect x="67.6" y="568.5" class="st2" width="194" height="88"/>
		<text transform="matrix(1 0 0 1 137.2129 634.1191)" class="st3 st4">3</text>
	</g>
</g>
<g id="mesa2_1_">
	<g>
		<path class="st0" d="M482.5,394.5h-148c-4.4,0-8-3.6-8-8l0,0c0-4.4,3.6-8,8-8h148c4.4,0,8,3.6,8,8l0,0
			C490.5,390.9,486.9,394.5,482.5,394.5z"/>
		<path class="st0" d="M483.3,130.5h-148c-4.4,0-8-3.6-8-8l0,0c0-4.4,3.6-8,8-8h148c4.4,0,8,3.6,8,8l0,0
			C491.3,126.9,487.6,130.5,483.3,130.5z"/>
		<path class="st0" d="M508.1,366h-199c-6.6,0-12-5.4-12-12V155c0-6.6,5.4-12,12-12h199c6.6,0,12,5.4,12,12v199
			C520.1,360.6,514.7,366,508.1,366z"/>
		<rect x="311.6" y="210.5" class="st2" width="194" height="88"/>
		<text transform="matrix(1 0 0 1 382.8706 276.1191)" class="st3 st4">2</text>
	</g>
</g>
<g id="mesa1">
	<g>
		<path class="st0" d="M239.3,130.5h-148c-4.4,0-8-3.6-8-8l0,0c0-4.4,3.6-8,8-8h148c4.4,0,8,3.6,8,8l0,0
			C247.3,126.9,243.7,130.5,239.3,130.5z"/>
		<path class="st0" d="M239.5,394.5h-148c-4.4,0-8-3.6-8-8l0,0c0-4.4,3.6-8,8-8h148c4.4,0,8,3.6,8,8l0,0
			C247.5,390.9,243.9,394.5,239.5,394.5z"/>
		<path class="st0" d="M264.1,366h-199c-6.6,0-12-5.4-12-12V155c0-6.6,5.4-12,12-12h199c6.6,0,12,5.4,12,12v199
			C276.1,360.6,270.7,366,264.1,366z"/>
		<rect x="67.6" y="210.5" class="st2" width="194" height="88"/>
		<text transform="matrix(1 0 0 1 144.8628 276.1191)" class="st3 st4">1</text>
	</g>
</g>
</svg>
